<svg xmlns="http://www.w3.org/2000/svg" width="38.032" height="38.023" viewBox="0 0 38.032 38.023"><path d="M19.015,11.5a9.749,9.749,0,1,0,9.749,9.749A9.733,9.733,0,0,0,19.015,11.5Zm0,16.087a6.338,6.338,0,1,1,6.338-6.338,6.349,6.349,0,0,1-6.338,6.338ZM31.436,11.1a2.274,2.274,0,1,1-2.274-2.274A2.269,2.269,0,0,1,31.436,11.1Zm6.457,2.308c-.144-3.046-.84-5.744-3.071-7.967S29.9,2.524,26.855,2.371c-3.139-.178-12.549-.178-15.688,0-3.037.144-5.736.84-7.967,3.063S.281,10.355.128,13.4C-.05,16.54-.05,25.95.128,29.089c.144,3.046.84,5.744,3.071,7.967s4.921,2.919,7.967,3.071c3.139.178,12.549.178,15.688,0,3.046-.144,5.744-.84,7.967-3.071s2.919-4.921,3.071-7.967c.178-3.139.178-12.54,0-15.679ZM33.837,32.457a6.417,6.417,0,0,1-3.614,3.614c-2.5.993-8.442.764-11.208.764s-8.714.221-11.208-.764a6.417,6.417,0,0,1-3.614-3.614c-.993-2.5-.764-8.442-.764-11.208s-.221-8.714.764-11.208A6.417,6.417,0,0,1,7.807,6.427c2.5-.993,8.442-.764,11.208-.764s8.714-.221,11.208.764a6.417,6.417,0,0,1,3.614,3.614c.993,2.5.764,8.442.764,11.208S34.83,29.963,33.837,32.457Z" transform="translate(0.005 -2.238)" fill="#f3f3f3"/></svg>