<svg xmlns="http://www.w3.org/2000/svg" width="37.637" height="37.637" viewBox="0 0 37.637 37.637"><path d="M34.948,2.375H2.68A2.7,2.7,0,0,0,0,5.089V37.3a2.7,2.7,0,0,0,2.68,2.714H34.948A2.707,2.707,0,0,0,37.637,37.3V5.089a2.707,2.707,0,0,0-2.688-2.714ZM11.375,34.635H5.8V16.674h5.587V34.635ZM8.586,14.22a3.234,3.234,0,1,1,3.234-3.234A3.236,3.236,0,0,1,8.586,14.22Zm23.7,20.415H26.707V25.9c0-2.083-.042-4.763-2.9-4.763-2.907,0-3.352,2.268-3.352,4.612v8.888H14.878V16.674H20.23v2.453h.076a5.875,5.875,0,0,1,5.284-2.9c5.646,0,6.7,3.722,6.7,8.561Z" transform="translate(0 -2.375)" fill="#f3f3f3"/></svg>