<svg xmlns="http://www.w3.org/2000/svg" viewBox="0 0 1376.94 608.62"><title>logo-color</title><g id="Layer_2" data-name="Layer 2"><g id="Layer_1-2" data-name="Layer 1"><path d="M207.4,551.68v-2.42q0-132.47-.05-265v-.84Q117.71,339.62,28.12,396a34.06,34.06,0,0,1-6.37,3.33l6.32,6.13L34.84,412a146.45,146.45,0,0,1,15.08,13.28c2,1.91,4,3.82,6,5.7q34.06,31.49,68,63.2l39.73,37L177,543.57q8.64,8,17.22,16a22.2,22.2,0,0,0,5.06,3.74c6.67-.17,8.08-1.86,8.14-9Z" style="fill:#ed1b2f;fill-rule:evenodd"/><path d="M27.32,413.72c7.88,5.76,14.54,12.92,21.71,19.53q55.36,51.24,110.5,102.82c10.47,9.74,21,19.42,31.39,29.16a25,25,0,0,0,7.24,5c-2.22.81-4.54.4-6.78.4H44.76A53,53,0,0,1,36,570.1c-5.19-.91-8.35-4.65-8.9-9.81-.07-.89,0-1.81,0-2.7V417.07a31.78,31.78,0,0,1,.29-3.35" style="fill:#71bf44;fill-rule:evenodd"/><path d="M612.82,182.26V147.61c0-10.71,0-21.35,0-32.05,0-5.12.1-5.17,5.35-5.21s10.45.16,15.66,0c3.38-.19,4.51,1.3,4.2,4.37a30.55,30.55,0,0,0,0,3.45v111.1c0,1.36-.11,2.68,0,4.05.14,2.59-.82,3.91-3.53,3.72a12.16,12.16,0,0,0-1.35,0c-5.89-.14-12.5,1.43-17.49-.79-4.73-2.11-6.29-9-9.21-13.87-12.84-21.67-25.59-43.4-38.45-65.23-1.84,1-.8,2.74-.8,4.05,0,23.13,0,46.34,0,69.45,0,1.2,0,2.29,0,3.43.07,2-.82,2.91-2.84,2.91-6.33,0-12.72,0-19.08.05-2,0-2.92-.82-2.88-2.8V116.26c0-1.81-.28-3.62.78-5.91,7.43,0,15.14.09,22.84,0,3.35-.12,4,2.51,5.18,4.58,10.26,17.15,20.42,34.38,30.62,51.5q4.81,8.15,9.63,16.2c.45-.12.94-.22,1.37-.34" style="fill:#0066b3;fill-rule:evenodd"/><path d="M660.86,173.65c0-17.45.08-34.93-.1-52.4,0-3.93.88-6.17,4.93-7.51,16.26-5.69,32.85-6.94,49.55-3,16.16,3.84,27.44,14.07,33,29.62a95.57,95.57,0,0,1-.35,67.24c-6.82,18.33-20.79,28.36-40,30.51-13.85,1.54-27.67.55-41-4.07-6.11-2.13-6.08-2.2-6.11-8.6,0-17.26,0-34.49,0-51.78m29.26-1.38c0,13.17-.09,26.36,0,39.51,0,5,.41,5.36,5.19,6,13.27,1.77,22.53-4.58,25.82-18.48,2.91-12.41,3.28-25.15,2.17-37.92-.56-6.32-1.28-12.66-3.62-18.62-4.05-10.44-12.43-15.56-23.57-14.54-5.55.52-6,1-6,6.6-.07,12.5,0,25,0,37.47" style="fill:#0066b3;fill-rule:evenodd"/><path d="M1070.25,172.77a88.34,88.34,0,0,1,4.55-31.31c5.84-16.84,16.38-29.07,34.69-32.05,24.47-3.92,43.72,5.25,53,29,5.77,14.58,6.83,29.94,5.55,45.48a86.33,86.33,0,0,1-6,26.46c-10.78,25.42-39.47,36.07-64.26,23.81-9.56-4.75-16-12.38-20.44-22-5.5-12.24-7.3-25.21-7.06-39.33m68.16.27c-.43-6.15-.6-12.78-1.42-19.28s-2.17-13-6-18.62c-6.06-9-17-9.12-23.33-.34a28.48,28.48,0,0,0-4.52,10.59c-3.47,14.5-3.25,29.24-1.9,44,.62,6.34,1.78,12.62,4.78,18.36,2.86,5.38,7,8.93,13.43,8.85s10.5-3.71,13.29-9.05a42.4,42.4,0,0,0,3.29-9.64c1.88-8.08,1.52-16.28,2.4-24.85" style="fill:#0066b3;fill-rule:evenodd"/><path d="M433.84,110.35c8.69,0,17.29,0,25.93,0,2.75,0,3.58,1.33,3.43,3.77-.08,1.61,0,3.15,0,4.77v75.75a65.92,65.92,0,0,0,.36,8.78c1.13,7.74,6.83,12.66,14.52,12.71,7.39,0,12.89-4.48,14.28-12a57.51,57.51,0,0,0,.72-9.45c.05-25.48,0-51,0-76.4,0-1.84.05-3.67.08-5.45s.92-2.41,2.56-2.41c7.33,0,14.59,0,21.83,0,2.46,0,3.14,1.28,3.09,3.42,0,1.16,0,2.28,0,3.46,0,27,.05,54.06,0,81.08,0,22.48-14.66,38.28-37.1,40.18-9.89.85-19.56.32-28.65-4.19-13.42-6.5-21.28-17.2-21.43-32.19-.41-29.55-.12-59.12-.12-88.64a18.87,18.87,0,0,1,.51-3.09" style="fill:#0066b3;fill-rule:evenodd"/><path d="M1066.34,237c-8.88,0-17.92-.06-27,0-2.8.07-3.34-1.79-3.89-3.74-1.85-6.3-3.78-12.58-5.35-19-.73-3.09-2-4.56-5.45-4.45q-14.63.19-29.27,0c-3.06-.09-4.46,1.11-5.23,3.92-1.74,6.34-3.81,12.61-5.55,18.93-.79,3-2,4.58-5.52,4.42-7-.25-14.06-.07-20.87-.07-1.54-1.81-.6-3.26-.15-4.71q18.87-58.52,37.76-117.17c1.16-3.59,2.73-5.11,6.66-4.89a155.4,155.4,0,0,0,19.06,0c4-.22,5.54,1.4,6.63,5,7.19,22.72,14.52,45.35,21.83,68q7.82,24.26,15.6,48.54a8.83,8.83,0,0,1,.73,5.24m-56-96.48c-4.71,17.06-9.44,34.05-14.36,51.61h28.34c-3.81-17.62-9.72-34.19-14-51.61" style="fill:#0066b3;fill-rule:evenodd"/><path d="M866,237c-9.87,0-18.72-.05-27.55,0-2.51.07-3.55-1.11-4.13-3.41-1.69-6.37-3.69-12.63-5.3-19-.85-3.3-2.13-4.89-6-4.82-9.5.31-19.1.19-28.56,0-3.35-.09-4.89,1.07-5.69,4.25-1.62,6.15-3.71,12.2-5.3,18.29-.88,3.32-2.3,4.94-6,4.75-7-.29-14.08-.07-21-.07-1-2.51.22-4.3.84-6.11q18.43-57.31,37.1-114.63c1.89-5.89,1.93-5.89,7.8-5.93s11.79,0,17.7,0c5.26,0,5.33,0,7,5.19Q841,159.18,855.11,203c3.56,11,7.07,22,10.93,34M823.39,192.1c-4.73-17.83-9.32-35.06-14-52.57-2.51,8.88-4.85,17.39-7.19,25.95s-4.87,17.42-7.46,26.62Z" style="fill:#0066b3;fill-rule:evenodd"/><path d="M884.46,258.79c6.1-8.25,11.29-15.34,16.4-22.17a2.45,2.45,0,0,0-1.56-2.35c-11.34-5.73-18.75-15-23.07-26.6-8.63-23.08-8.63-46.31.63-69.09,6-14.84,16.48-25.64,32.81-28.94,11.33-2.25,22.58-1.48,33.28,3.64,3.14,1.47,4.47,3.47,2.81,7-.64,1.39-1,3-1.55,4.48-1.06,2.75-1,6.44-3.25,8s-4.9-1.21-7.48-1.81c-12.74-2.78-22.87,1.85-27.58,14a74,74,0,0,0-.48,54.54c5.58,14.86,16.65,19.45,31.75,13.9,3.18-1.21,4-.12,4.82,2.36,1.3,3.86,2.56,7.73,4.1,11.51,1.38,3.23.24,5-2.67,6.44a42.3,42.3,0,0,1-17.64,4.64,6.89,6.89,0,0,0-6.44,3.86c-2.48,4.38-5.35,8.48-7.81,12.83-1.46,2.6-3.16,4-6.45,3.83-6.31-.27-12.68-.09-20.62-.09" style="fill:#0066b3;fill-rule:evenodd"/><path d="M471.33,568.84a58,58,0,0,1-17.58,2.41c-12-.43-21.38-5.43-27.92-15.58-10.51-16.31-9.81-45.91,1.46-61.69a35,35,0,0,1,17.61-13.33c14.2-4.81,28.2-3.51,42.11,1.27,3.45,1.18,4.85,3.24,4.85,7.1-.17,28,0,55.93-.17,83.87a43.11,43.11,0,0,1-1.47,10.8c-3.52,13.45-12.37,21.52-25.91,23.89a69.65,69.65,0,0,1-35-2.92c-5.68-1.93-5.92-2.48-3.62-7.63,1.16-2.65,1.28-6.32,4-7.59,2.54-1.18,5.05,1.4,7.61,2.15a48.6,48.6,0,0,0,16.18,1.81c10.61-.59,16.11-5.58,17.8-16.1a22.9,22.9,0,0,0,0-8.46m.37-44.53c0-9.31,0-18.63.07-27.92,0-2.86-.66-4.65-3.72-5.5-12-3.23-22.6,2.35-26.25,14.36a71.39,71.39,0,0,0-.94,37.65c3,12.82,13.71,18.77,25.86,15.33,3.58-1,5.21-2.68,5.09-6.67-.28-9.06-.11-18.14-.11-27.25" style="fill:#6d6e70;fill-rule:evenodd"/><path d="M347.75,173q0-28.66,0-57.22c0-5.29.11-5.4,5.16-5.4,17.95,0,35.85,0,53.81,0,5,0,5,.11,5.15,5.37.06,3.41-.15,6.81.06,10.23s-.86,4.83-4.58,4.73c-8-.27-15.87-.12-23.83-.07-5.77,0-5.84.07-5.84,6,0,7,.13,14.07-.09,21.08-.1,3.52,1,4.85,4.6,4.76,7-.24,14.07,0,21.11-.13,3.24-.07,4.51,1.12,4.3,4.39a93.68,93.68,0,0,0,0,10.86c.21,3.41-.88,4.9-4.56,4.8-6.78-.27-13.63-.16-20.41-.09-4.82.09-4.92.16-4.95,4.91,0,14.5,0,29,0,43.57,0,6.13-.07,6.13-6.4,6.18h-17c-7,0-6.48.22-6.48-6.81Z" style="fill:#0066b3;fill-rule:evenodd"/><path d="M1203,481c5.77-.68,10.66-2.6,15.9-2.6,15.42-.17,27.34,7,33.05,21.47,6.46,16.3,6.15,32.87-.6,49.06-5.43,12.93-15.59,20.14-29.43,22.5a66.53,66.53,0,0,1-33.44-3c-5.79-2-5.93-2.37-5.93-8.28q0-58.21,0-116.37c0-5.64.1-5.64,5.6-5.76,3.39,0,6.82.14,10.22,0s4.8,1.1,4.73,4.7c-.19,10.44-.1,20.87-.1,31.28Zm.07,44.27c0,9.33.08,18.64-.07,27.91,0,3,.68,4.94,3.74,5.45,10.91,1.74,20.94.38,25.72-13.06a62.87,62.87,0,0,0,.38-41.36c-3.57-11-12.3-15.52-23.57-13.17-5.54,1.23-6.17,1.95-6.2,7.74-.07,8.83,0,17.68,0,26.49" style="fill:#6d6e70;fill-rule:evenodd"/><path d="M641.44,479.46c1.34-2,.74-4.37.77-6.59,0-10,.12-19.95-.07-29.94-.08-3.61,1.15-5,4.68-4.75,4.94.34,11.11-1.93,14.59.92,3.71,3,1.28,9.38,1.32,14.23.17,35.19.08,70.37.08,105.51,0,7.58,0,7.75-7.24,10-11.91,3.67-24.05,4.92-36.26,2.09-12.59-3-21.54-10.56-26.12-22.67-5.57-14.55-5.45-29.36-.29-43.93,6.64-18.53,23-28.08,42.46-25.28,2,.27,4,1,6.08.37m.77,45.32c0-9.5,0-19,0-28.58,0-2.78-.44-4.92-3.79-5.24-11.87-1.26-21,1.76-25.5,14.18a58.21,58.21,0,0,0,0,40c3.83,10.77,13.24,15.64,24.44,13.52,3.44-.66,5-2.23,4.89-5.94-.24-9.33-.09-18.63-.09-28" style="fill:#6d6e70;fill-rule:evenodd"/><path d="M1161.46,522.79c0,12.52-.16,25,.07,37.5,0,3.77-1.23,5.77-4.74,7.07a78.54,78.54,0,0,1-41.48,4.17c-15.14-2.65-22.93-11.82-23.87-27.11-.08-2,0-4.08,0-6.15q0-26.6,0-53.14c0-5.53.14-5.58,5.72-5.7,3.61-.07,7.26.17,10.92,0,3.23-.15,4.44,1.18,4.32,4.41-.12,6.37,0,12.74,0,19.06,0,13-.17,25.9,0,38.86.22,13.87,13.34,21.09,25.69,14.45a4.5,4.5,0,0,0,2.44-4.42c0-3.45,0-6.85,0-10.22,0-17.69-.06-35.41,0-53.15,0-9.84-1.23-8.92,9.23-8.95,1.38,0,2.76,0,4.11,0,7.52,0,7.54,0,7.59,7.29Z" style="fill:#6d6e70;fill-rule:evenodd"/><path d="M827.63,356c0,12.51-.15,25,.12,37.49.12,4.15-1.5,6.12-5.24,7.35-13.55,4.66-27.37,6.42-41.56,3.84-14.59-2.7-22.72-12.19-22.82-27-.2-19.95-.1-39.95,0-59.92,0-4.84.13-4.87,5-5,4.08-.1,8.14,0,12.28.1,2.17,0,3.21,1.11,3.21,3.37-.09,3.87,0,7.68,0,11.59,0,15.43-.09,30.83,0,46.27.08,14.59,13.3,22.24,26.18,15.26,2.58-1.42,2.41-3.52,2.41-5.83V347.43c0-10,.17-20,0-30-.07-3.58,1.06-5,4.63-4.76s7.26-.09,10.91.08c4.84.1,4.92.17,5,5.08.07,12.7,0,25.41,0,38.1" style="fill:#6d6e70;fill-rule:evenodd"/><path d="M347.72,512.62c0-17.51,0-35.05,0-52.51,0-5.58.07-5.72,5.66-5.72q22.5-.08,44.95,0c5.28,0,5.42.14,5.35,5.31,0,10.94,1.08,9.21-8.73,9.36-6.83.09-13.65,0-20.46,0-5,.09-5.16.11-5.18,4.73-.08,8.46.11,16.81-.08,25.23-.07,3.62,1.35,4.75,4.8,4.7,7-.17,14.09-.12,21.14,0,4.77,0,4.94.19,5,5,.06,11.36.57,9.26-8.76,9.39q-9.23.14-18.41,0c-2.55,0-3.71.89-3.71,3.57,0,10.22.07,20.43,0,30.65,0,3.19,1.54,3.81,4.2,3.81,8.19-.14,16.4-.14,24.53,0,5.62,0,5.76.05,5.69,5.53,0,9.75,1.23,8.83-8.57,8.88q-19.09.06-38.16,0c-10.78-.05-9.19.8-9.23-8.93-.06-16.37,0-32.69,0-49" style="fill:#6d6e70;fill-rule:evenodd"/><path d="M583.21,480.48c-.53,4-2.17,7.77-3.41,11.63q-17.22,53.05-34.4,106.14c-.63,1.93-1.22,3.86-1.88,5.81a3.33,3.33,0,0,1-3.54,2.52c-6-.15-12.13.43-18.62-.37,1.64-6.49,4.62-12.06,6.85-17.94s5.86-11.8,6.49-17.81c.57-6.17-3.26-12.15-5.19-18.19-7.15-22-14.38-44-21.54-66-.63-1.93-1.6-3.74-1.38-6.2,6.23-.87,12.57-.32,18.81-.39,2.81,0,3.09,2.31,3.55,4.22,2.77,10.3,5.5,20.58,8.23,31,2.51,9.53,5.07,19.18,7.59,28.73,2.35.13,1.91-1.66,2.22-2.79q7.83-27.48,15.62-55c2.07-7.34,2.11-6.13,8.29-6.16,3.64,0,7.26.07,10.88.18.41,0,.8.36,1.43.64" style="fill:#6d6e70;fill-rule:evenodd"/><path d="M871.13,551A44.14,44.14,0,0,0,888,555.78c12.67.58,20.55-6.45,20.26-18.32a15.69,15.69,0,0,0-5.86-11.81,42.29,42.29,0,0,0-10.51-6.27,74.43,74.43,0,0,1-9.08-4.62c-13.26-8.25-18.66-21.37-15.15-36.25,3.34-14.14,14.5-24,29.34-25.5a48.7,48.7,0,0,1,25.91,4.27c2.79,1.23,3.76,3,2.6,5.94a11.09,11.09,0,0,0-.72,1.88c-2.44,7.19-2.41,7.19-9.62,4.73a31.44,31.44,0,0,0-11.3-2.22c-7.25.17-12.63,3.68-14.88,9.84-2.43,6.8-1.62,12.93,3.67,18.24,3,3,6.59,4.77,10.32,6.48a94.4,94.4,0,0,1,13.83,7.33c10.78,7.37,15.36,17.69,14.15,30.5-1.18,13.2-7.64,23.28-20,28.71-13.68,6-27.55,4.51-41.13-.7-4.27-1.6-4.34-2.23-2.85-6.67,1.14-3.4,1.86-7,4.11-10.34" style="fill:#6d6e70;fill-rule:evenodd"/><path d="M728,525.05c-.39-10.11,1.06-19.45,5.52-28.15,6.59-13.1,17.7-19.13,32-18.94s25.73,6.06,31.66,19.51c8,18.12,8.07,36.68.11,54.79-6,13.6-17.28,20.1-32.06,20.07-14.62,0-25.7-6.41-32.11-19.88a55.4,55.4,0,0,1-5.16-27.4m20.28-.19c.2,4.53-.14,9.53.87,14.45a56.46,56.46,0,0,0,2.32,8.48c2.92,7.54,8.13,10.74,15.84,9.92,7.19-.7,10.74-5.5,12.47-11.75a76.49,76.49,0,0,0,2.25-29.62c-.68-5.84-1.21-11.65-4-17.06a14,14,0,0,0-12.4-8.2c-5.65-.19-9.94,2.63-12.78,7.55a27.67,27.67,0,0,0-2.93,7.53c-1.58,6.05-1.49,12.11-1.66,18.7" style="fill:#6d6e70;fill-rule:evenodd"/><path d="M1336,534.79c0,8.63-.17,17.27,0,25.84.11,3.73-1,6-4.61,7.23-15,4.92-30.16,6.41-45.55,2.24-10.54-2.84-17.56-9.29-19.27-20.5-1.78-11.56,1.62-21.06,11.34-28,7.07-5,15.22-7,23.47-8.69,3.09-.69,6.25-1,9.41-1.42,5.55-.84,5.55-.84,5.43-6.22-.22-7.82-4-12.23-11.76-13.32a45,45,0,0,0-22.76,2.73c-5.14,1.93-5.38,3.28-8.14-3.83-.43-1-.79-2.15-1.25-3.19-1-2.13-.33-3.35,1.84-4.17a77.13,77.13,0,0,1,13.67-4.15,67.86,67.86,0,0,1,23.69-.72c13.49,2.11,21.52,10.08,23.67,23.47a32.13,32.13,0,0,1,.67,4.75c0,9.28,0,18.62,0,27.91Zm-19.71,5.52h0c0-5.23,0-10.44,0-15.66,0-1.73-.53-3.18-2.7-3-7.52.77-14.93,1.91-21.08,6.73-6.47,5.12-7.4,12.23-6.27,19.78.94,6.3,5.09,10,11,11.51a32.36,32.36,0,0,0,14.81-.05c3.3-.65,4.44-2.53,4.31-5.74-.23-4.54,0-9,0-13.61" style="fill:#6d6e70;fill-rule:evenodd"/><path d="M465.34,359.85c0,8.58-1.33,18.18-5.94,27-6.73,12.76-17.63,18.74-31.62,18.71s-25.3-5.85-31.4-18.93c-8.71-18.67-8.64-37.82-.06-56.57,6.15-13.32,17.71-19.1,32-18.91s25.19,6.37,31.6,19.66c4.25,8.78,5.36,18.14,5.41,29m-20.91-1.77c0-3.88.26-7.76-.08-11.57-.46-5.63-1.56-11.22-4.92-16a14,14,0,0,0-23.06,0,21.07,21.07,0,0,0-3.31,7.42,82.85,82.85,0,0,0-1.92,29c.74,5.86,1.3,11.7,4.39,17,3.47,5.91,8.82,8.44,15.46,7.2,5.4-1.06,8.66-4.6,10.66-9.57,3-7.52,3.14-15.44,2.78-23.38" style="fill:#6d6e70;fill-rule:evenodd"/><path d="M987.28,572.37c-25.64.34-42.16-15-43.59-39.85-.48-8.36-.72-16.76,1.52-25,3.23-12.29,9.58-22.15,21.91-26.92a39.92,39.92,0,0,1,30.53.4c12.24,5,17.2,15.61,19.35,27.77.8,4.83,3.16,10.66.48,14.64-2.63,3.77-8.73,2.53-13.38,3.21-11.41,1.83-22.9,3.38-34.36,5-6.41.94-7,1.65-5.59,7.79,2.48,11.12,10.3,17.74,21.64,18.22a47.72,47.72,0,0,0,20.06-3.28c3.34-1.36,4.78-.49,6.09,2.73,3.74,9.11,3.62,9.69-6,12.47a73.15,73.15,0,0,1-18.67,2.86m-25.52-50.43c9.26-1.4,17.7-2.78,26.18-3.87,11.45-1.56,12.52-3.06,9.31-14.13-.13-.43-.24-.87-.41-1.33-1.84-6.1-5.72-10.28-12.12-11.45-6.73-1.28-12.71.45-16.93,6.08-5.48,7.21-6.3,15.57-6,24.7" style="fill:#6d6e70;fill-rule:evenodd"/><path d="M615.7,386.1c1.53,3.88,2.7,7,4,10.18.73,1.79.32,3.11-1.44,3.91-12,5.71-37.37,9.17-52.35-1.67a34.71,34.71,0,0,1-12.52-15.75c-6.44-16.6-6.66-33.34.15-49.81,9.52-23,35.38-26,51.69-17.81,11.43,5.77,15.82,16.46,17.59,28.37,2.14,14.45,1.95,14.4-12.31,16.33-12.57,1.65-25.18,3.55-37.75,5.4-4.22.61-4.32.85-3.5,5.32C572,385,580.88,392,596.73,390.82a59.56,59.56,0,0,0,19-4.72m-48.3-37.78c-.24,6.49-.15,6.73,5.65,6,7.62-1,15.26-2.15,22.84-3.48,9.12-1.52,9.53-2.22,7.57-11.23a36.47,36.47,0,0,0-1-4c-2.24-6.18-6.13-10.54-13.07-11.29-7.39-.82-13.42,1.42-17.42,8-3.14,5.26-4,11-4.56,16" style="fill:#6d6e70;fill-rule:evenodd"/><path d="M369.59,348.28c0,16.78.1,33.58,0,50.39-.22,21.18-11.68,35.61-32.18,40.79a44.86,44.86,0,0,1-4.66.87c-2.5.36-4-.44-3.86-3.23a37.27,37.27,0,0,0-.05-4.73c-.5-4.24.56-6.95,5.15-8.81,8.87-3.5,12.75-11.17,13.74-20.31.3-3.16.22-6.34.22-9.53V292.94c.15-5.09.15-5.16,5.48-5.19,3.64-.12,7.26-.12,10.88,0,5.16.07,5.28.1,5.3,5.36q0,27.61,0,55.17" style="fill:#6d6e70;fill-rule:evenodd"/><path d="M691.5,345.43c0-17.47,0-35,0-52.4,0-5.18.12-5.21,5.31-5.28q5.5-.18,10.93,0c5.4,0,5.4.1,5.52,5.81v86.49c0,1.61.07,3.2,0,4.79-.28,3.28,1.33,4.35,4.46,4.28,6.57-.1,13.16,0,19.72,0,1.63,0,3.2,0,4.8.07,2.92.07,3.21,2.22,2.92,4.34-.49,3.33,1.87,7.28-1.87,10-.77.53-2.21.19-3.35.22q-21.45,0-42.93,0c-5.45-.05-5.51-.12-5.51-5.78-.07-17.5,0-34.94,0-52.47" style="fill:#6d6e70;fill-rule:evenodd"/><path d="M1057.42,454.46c1.06,6.3.34,12.38.48,18.41.17,6.78.07,6.76,6.61,6.88,8.4.12,8.25-2.18,8.3,9.21.07,3.33-1.26,4.58-4.44,4.24-.22,0-.48,0-.7,0-9.73.3-9.73.3-9.73,9.75,0,13,0,25.89,0,38.84a59.49,59.49,0,0,0,.15,6.11c.66,6.61,4.1,9.62,10.78,9.55,1.09-.05,2.25-.63,3.34.07.84,1.16.52,2.6.55,3.93.17,9.09-.27,9.63-9.15,10.08-16.33.8-26.17-8.29-26.5-24.87-.34-14.49,0-29,0-43.56,0-1.83-.12-3.62,0-5.46.19-3.1-1.06-4.36-4.25-4.55-5.77-.25-6-.48-5.71-6.16.16-2.51-2-6.27,2.72-7.18,2.19-.36,4.94.94,6.46-1.06s.56-4.83.78-7.29c.31-3.77-1.47-8.25.94-11.2s7-2.57,10.68-3.81a29.37,29.37,0,0,1,8.74-1.93" style="fill:#6d6e70;fill-rule:evenodd"/><path d="M925.1,326.43c-8.68,0-16.14.05-23.64,0-7.13,0-7.13,0-7.09-6.95a22,22,0,0,0,0-2.7c-.29-2.94,1.06-4.13,4-4,5.67,0,11.3,0,17,0,10.23,0,20.46-.1,30.66,0,5,0,5.25.45,3.28,5.06-8.06,19-16.23,38-24.3,57-2,4.73-4,9.49-5.9,14.21,2.45,2,4.79,1.17,6.94,1.23,7.27.08,14.53.13,21.79,0,3.3-.07,4.38,1.24,4.31,4.39-.11,10.77.54,9-8.48,9.05-14.75.07-29.51,0-44.29,0-2.22,0-4.5.36-7.61-.82,10.62-25.16,22.2-49.88,33.41-76.44" style="fill:#6d6e70;fill-rule:evenodd"/><path d="M483.35,385.86c5.1,2.72,10.18,4.48,15.76,4.55,7.57.08,12.37-3.06,14-9.23,1.78-6.59-.85-12.07-7.58-15.68-4.56-2.52-9.57-4.08-14.06-6.81-14.79-9-14.16-28-5.46-37.95,4.52-5.16,10.3-7.95,17-9.07,9-1.51,17.56.17,25.79,4,2.53,1.2,3.44,2.7,2.09,5.38-1.39,2.53-2,5.5-4.19,8.24-3.53-1.69-7.1-3.57-11.17-4.17-6.69-1-12.57,1.64-14.7,7-2.34,5.94-.14,11.77,6.2,15.59,2.34,1.37,4.87,2.34,7.29,3.59,2.26,1.06,4.58,2,6.75,3.23,9.82,5.6,14.57,13.9,13.56,25.36-1,10.56-6.59,17.95-15.9,22-12.78,5.66-25.66,4.22-38.21-1.29-2.24-1-3.14-2.45-1.93-4.82,1.55-3,2.15-6.44,4.68-9.93" style="fill:#6d6e70;fill-rule:evenodd"/><path d="M1376.92,504.91q0,28.65,0,57.28c0,9.58.94,8.52-8.92,8.59-1.59,0-3.18,0-4.76,0-7.2,0-7.21,0-7.21-6.87q-.06-59.67,0-119.36c0-6.52,0-6.52,6.9-6.52,2.24,0,4.49,0,6.74,0,7.83,0,7.26-.31,7.25,7.56Z" style="fill:#6d6e70;fill-rule:evenodd"/><path d="M852.47,358.51c0-13-.05-25.84,0-38.79,0-6.94,0-6.94,7.17-7,3.21,0,6.41.1,9.57,0s4.51,1.31,4.25,4.47c-.05.89,0,1.8,0,2.7v76.9c0,1.13-.05,2.27,0,3.37.07,2.68-1.32,3.57-3.81,3.53-4-.12-8.15,0-12.25,0-4.78-.12-4.9-.19-4.9-5-.08-13.41,0-26.81,0-40.17" style="fill:#6d6e70;fill-rule:evenodd"/><path d="M707.72,525.28c0,13.39,0,26.78,0,40.21,0,5.14-.16,5.17-5.39,5.28-3.87.05-7.75-.07-11.58,0-2.63.05-3.69-1.1-3.63-3.69.1-3.64,0-7.21,0-10.85q0-35.15,0-70.22c0-6.2.09-6.25,6.41-6.28,3.19,0,6.37.15,9.55-.07,3.57-.21,4.74,1.21,4.69,4.75-.17,10.21-.06,20.42-.06,30.64Z" style="fill:#6d6e70;fill-rule:evenodd"/><path d="M987.85,100.8c-1.27-2.62-2.28-4.62-3.23-6.7-2.57-5.58-2.14-7.87,2.42-11.78,5.35-4.57,11.55-5,18-3a51.48,51.48,0,0,1,7.41,3.4c10,4.94,14.85,3.93,22-4.8,2.31,2,2.93,5,4.19,7.59,2.42,4.88,1.69,7.85-2.87,10.94-5.65,3.8-11.82,4.33-18.23,2.17a52,52,0,0,1-6.18-2.75c-11.2-5.31-15.06-4.56-23.48,5" style="fill:#0066b3;fill-rule:evenodd"/><path d="M1118.15,469.62c3.54-7.38,6.63-14.37,10.24-21.1,2.71-5.14,14.91-7.2,19.62-3.75,1.62,1.28,1.44,2.59.22,4-1.91,2.22-3.77,4.5-5.72,6.7-2.37,2.75-5.12,5.24-7.09,8.22-4,6.18-9.41,7.9-17.27,5.89" style="fill:#6d6e70;fill-rule:evenodd"/><path d="M579.11,303.05c3.84-7.71,7.28-15.31,11.41-22.46,2.44-4.19,14-5.38,18.33-2.62,1.57,1,2.18,2.26.82,3.85-5.95,6.9-11.79,13.78-17.87,20.48-1.86,2.05-3.89,1.89-12.69.75" style="fill:#6d6e70;fill-rule:evenodd"/><path d="M708.37,454.31c-.17,5.56-5.42,10.12-11.53,10.06-6.48,0-11.38-5-11-11.07.29-5.67,5.56-10.08,11.66-9.77s11,5.17,10.87,10.78" style="fill:#6d6e70;fill-rule:evenodd"/><path d="M862.56,297.56c-6.18-.16-11.22-5.06-10.91-10.69s5.7-10.24,11.75-10c6.25.15,11,4.93,10.78,10.77s-5.08,10-11.62,9.93" style="fill:#6d6e70;fill-rule:evenodd"/><path d="M7.11,394.14C1.76,391.08,0,386.5,0,380.51q.18-102,0-203.88c0-6.08,2.31-10.16,7.36-13.48Q127.42,83.4,247.33,3.5a32.85,32.85,0,0,1,3.45-2.24,11.14,11.14,0,0,1,16.29,8.65,40.49,40.49,0,0,1,.12,4.8c0,70.42-.1,140.84.11,211.3,0,7.26-2.57,11.79-8.68,15.53-15.92,9.61-31.46,19.88-47.16,29.84-2,1.16-4,2.18-5.89,3.41Q113.35,332.6,21.11,390.6c-4.39,2.79-8.69,4.92-14,3.54" style="fill:#0066b3;fill-rule:evenodd"/></g></g></svg>