<?xml version="1.0" encoding="utf-8"?>
<!-- Generator: Adobe Illustrator 15.0.0, SVG Export Plug-In . SVG Version: 6.00 Build 0)  -->
<!DOCTYPE svg PUBLIC "-//W3C//DTD SVG 1.1//EN" "http://www.w3.org/Graphics/SVG/1.1/DTD/svg11.dtd">
<svg version="1.1" id="Layer_1" xmlns="http://www.w3.org/2000/svg" xmlns:xlink="http://www.w3.org/1999/xlink" x="0px" y="0px"
	 width="291px" height="109.613px" viewBox="0 0 291 109.613" enable-background="new 0 0 291 109.613" xml:space="preserve">
<g>
	<g>
		<defs>
			<path id="SVGID_1_" d="M5.142,44.034c-6.855,6.86-6.855,17.964,0.006,24.827c6.851,6.848,17.962,6.848,24.812-0.01l6.407-6.405
				L31.724,57.8l-6.408,6.406c-2.077,2.077-4.833,3.22-7.766,3.22c-2.929,0-5.686-1.138-7.752-3.21
				c-4.285-4.285-4.291-11.255-0.01-15.538l26.601-26.601l-4.643-4.644L5.142,44.034z"/>
		</defs>
		<clipPath id="SVGID_2_">
			<use xlink:href="#SVGID_1_"  overflow="visible"/>
		</clipPath>
		
			<linearGradient id="SVGID_3_" gradientUnits="userSpaceOnUse" x1="76.5781" y1="131.0986" x2="79.0684" y2="131.0986" gradientTransform="matrix(12.8448 -12.3794 -12.3794 -12.8448 671.063 2664.5781)">
			<stop  offset="0" style="stop-color:#AFA48C"/>
			<stop  offset="0.1018" style="stop-color:#9E7F6D"/>
			<stop  offset="0.2203" style="stop-color:#8E5C4F"/>
			<stop  offset="0.3459" style="stop-color:#813E37"/>
			<stop  offset="0.4787" style="stop-color:#772824"/>
			<stop  offset="0.622" style="stop-color:#701716"/>
			<stop  offset="0.7832" style="stop-color:#6B0E0E"/>
			<stop  offset="1" style="stop-color:#6A0B0C"/>
		</linearGradient>
		<polygon clip-path="url(#SVGID_2_)" fill="url(#SVGID_3_)" points="-30.831,45.497 18.04,-1.604 65.505,47.645 16.635,94.745 		
			"/>
	</g>
	<g>
		<defs>
			<path id="SVGID_4_" d="M44.035,5.145l-6.392,6.387l4.65,4.647l6.387-6.391c2.074-2.077,4.833-3.22,7.761-3.22
				c2.937,0,5.698,1.146,7.777,3.222c2.07,2.077,3.21,4.832,3.21,7.76c0,2.934-1.143,5.688-3.222,7.767L37.623,51.898l4.646,4.649
				l26.586-26.586c6.855-6.855,6.855-17.964,0.007-24.812C65.429,1.716,60.936,0,56.441,0C51.952,0,47.461,1.716,44.035,5.145"/>
		</defs>
		<clipPath id="SVGID_5_">
			<use xlink:href="#SVGID_4_"  overflow="visible"/>
		</clipPath>
		
			<linearGradient id="SVGID_6_" gradientUnits="userSpaceOnUse" x1="76.5605" y1="130.291" x2="79.0513" y2="130.291" gradientTransform="matrix(12.8444 -12.379 -12.379 -12.8444 671.0669 2664.0938)">
			<stop  offset="0" style="stop-color:#AFA48C"/>
			<stop  offset="0.1018" style="stop-color:#9E7F6D"/>
			<stop  offset="0.2203" style="stop-color:#8E5C4F"/>
			<stop  offset="0.3459" style="stop-color:#813E37"/>
			<stop  offset="0.4787" style="stop-color:#772824"/>
			<stop  offset="0.622" style="stop-color:#701716"/>
			<stop  offset="0.7832" style="stop-color:#6B0E0E"/>
			<stop  offset="1" style="stop-color:#6A0B0C"/>
		</linearGradient>
		<polygon clip-path="url(#SVGID_5_)" fill="url(#SVGID_6_)" points="9.367,27.23 57.369,-19.032 103.965,29.316 55.964,75.577 		
			"/>
	</g>
	<g>
		<defs>
			<path id="SVGID_7_" d="M57.769,42.239l6.439,6.439c2.077,2.077,3.22,4.833,3.22,7.763c0,2.935-1.143,5.698-3.225,7.775
				c-2.069,2.072-4.826,3.21-7.757,3.21c-2.933-0.005-5.687-1.143-7.764-3.22L22.071,37.592l-4.647,4.649l26.613,26.609
				c6.851,6.858,17.962,6.858,24.812,0.01c6.861-6.863,6.861-17.971,0.008-24.827l-6.448-6.444L57.769,42.239z"/>
		</defs>
		<clipPath id="SVGID_8_">
			<use xlink:href="#SVGID_7_"  overflow="visible"/>
		</clipPath>
		
			<linearGradient id="SVGID_9_" gradientUnits="userSpaceOnUse" x1="82.1118" y1="129.9609" x2="84.6022" y2="129.9609" gradientTransform="matrix(-1.6755 -12.7522 -12.7522 1.6755 1838.2344 861.6719)">
			<stop  offset="0" style="stop-color:#AFA48C"/>
			<stop  offset="0.3006" style="stop-color:#6A0B0C"/>
			<stop  offset="0.4724" style="stop-color:#6A0B0C"/>
			<stop  offset="1" style="stop-color:#6A0B0C"/>
		</linearGradient>
		<polygon clip-path="url(#SVGID_8_)" fill="url(#SVGID_9_)" points="18.414,83.238 12.501,38.236 74.721,30.062 80.634,75.062 		
			"/>
	</g>
	<g>
		<defs>
			<path id="SVGID_10_" d="M5.137,5.149c-6.851,6.848-6.851,17.957,0.008,24.808l6.376,6.385l4.65-4.648l-6.38-6.375
				c-2.077-2.079-3.22-4.835-3.22-7.77c0-2.928,1.143-5.686,3.21-7.758c4.282-4.282,11.256-4.285,15.533-0.002l26.554,26.551
				l4.645-4.648L29.963,5.142C26.536,1.716,22.046,0.002,17.557,0C13.064,0,8.57,1.716,5.137,5.149"/>
		</defs>
		<clipPath id="SVGID_11_">
			<use xlink:href="#SVGID_10_"  overflow="visible"/>
		</clipPath>
		
			<linearGradient id="SVGID_12_" gradientUnits="userSpaceOnUse" x1="82.1001" y1="130.6836" x2="84.5902" y2="130.6836" gradientTransform="matrix(-1.6754 -12.752 -12.752 1.6754 1833.5312 862.1016)">
			<stop  offset="0" style="stop-color:#AFA48C"/>
			<stop  offset="0.3006" style="stop-color:#6A0B0C"/>
			<stop  offset="0.4724" style="stop-color:#6A0B0C"/>
			<stop  offset="1" style="stop-color:#6A0B0C"/>
		</linearGradient>
		<polygon clip-path="url(#SVGID_11_)" fill="url(#SVGID_12_)" points="-0.725,43.862 -6.407,0.617 55.525,-7.521 61.208,35.725 		
			"/>
	</g>
	<g>
		<path fill="#6B0A0C" d="M104.082,26.083v-1.31c0-3.236-1.31-5.933-4.084-5.933c-3.08,0-4.47,2.389-4.47,4.854
			c0,10.862,23.423,5.548,23.423,25.655c0,11.709-6.856,16.948-19.491,16.948c-11.864,0-18.491-4.081-18.491-15.484v-1.928h13.867
			v1.311c0,4.696,1.93,6.394,4.701,6.394c2.929,0,4.622-2.311,4.622-5.311c0-10.867-22.496-5.471-22.496-24.963
			c0-11.094,5.934-17.181,18.026-17.181c12.481,0,17.797,5.165,17.797,16.949H104.082z"/>
		<rect x="123.493" y="10.212" fill="#6B0A0C" width="14.33" height="55.005"/>
		<polygon fill="#6B0A0C" points="151.3,22.386 140.518,22.386 140.518,10.211 176.419,10.211 176.419,22.386 165.634,22.386 
			165.634,65.217 151.3,65.217 		"/>
		<path fill="#6B0A0C" d="M184.435,10.211h18.027l13.404,55.006h-15.255l-1.464-9.63h-11.401l-1.464,9.63H171.03L184.435,10.211z
			 M193.522,21.46h-0.153l-3.933,23.343h8.016L193.522,21.46z"/>
		<polygon fill="#6B0A0C" points="235.521,10.212 248.463,10.212 254.085,48.268 254.24,48.268 258.091,10.212 271.959,10.212 
			262.558,65.217 246.846,65.217 242.069,28.236 241.911,28.236 237.135,65.217 221.423,65.217 212.021,10.212 225.891,10.212 
			230.199,48.268 230.36,48.268 		"/>
		<rect x="274.807" y="10.212" fill="#6B0A0C" width="14.329" height="55.005"/>
		<polygon fill="#B0A48D" points="1.718,80.421 12.974,80.421 12.974,82.143 3.752,82.143 3.752,90.407 12.368,90.407 
			12.368,92.124 3.752,92.124 3.752,103.125 1.718,103.125 		"/>
		<rect x="23.336" y="80.421" fill="#B0A48D" width="2.037" height="22.704"/>
		<polygon fill="#B0A48D" points="37.009,80.421 39.744,80.421 48.424,100.197 48.486,100.197 48.486,80.421 50.523,80.421 
			50.523,103.125 47.787,103.125 39.108,83.35 39.043,83.35 39.043,103.125 37.009,103.125 		"/>
		<path fill="#B0A48D" d="M66.926,80.421h2.545l6.708,22.704h-2.162l-1.842-6.614h-7.952l-1.844,6.614h-2.16L66.926,80.421z
			 M71.726,94.799l-3.493-12.787h-0.068l-3.496,12.787H71.726z"/>
		<polygon fill="#B0A48D" points="85.875,80.421 88.612,80.421 97.29,100.197 97.352,100.197 97.352,80.421 99.386,80.421 
			99.386,103.125 96.653,103.125 87.974,83.35 87.909,83.35 87.909,103.125 85.875,103.125 		"/>
		<path fill="#B0A48D" d="M117.605,103.51c-4.45-0.224-6.9-3.818-6.9-11.736c0-8.132,2.607-11.731,7.252-11.731
			c4.61,0,6.516,3.278,6.516,6.994h-2.037c0-3.083-1.559-5.277-4.479-5.277c-3.245,0-5.215,2.67-5.215,10.015
			s1.97,10.02,5.215,10.02c2.859,0,4.479-2.452,4.703-6.362h2.038c-0.257,4.801-2.356,7.66-5.915,8.011l-1.116,1.464l0.064,0.034
			c0.287-0.131,0.668-0.16,1.079-0.16c1.371,0,2.454,0.953,2.454,2.13c0,1.78-1.908,2.704-3.372,2.704
			c-0.986,0-2.195-0.321-2.83-0.637l0.381-0.987c0.508,0.258,1.208,0.477,1.908,0.477c1.527,0,2.193-0.638,2.193-1.396
			c0-0.797-0.827-1.143-1.685-1.143c-0.605,0-1.048,0.093-1.397,0.316l-0.416-0.54L117.605,103.51z"/>
		<path fill="#B0A48D" d="M140.243,80.421h2.541l6.712,22.704h-2.165l-1.843-6.614h-7.95l-1.841,6.614h-2.164L140.243,80.421z
			 M145.045,94.799l-3.502-12.787h-0.063l-3.497,12.787H145.045z"/>
		<path fill="#B0A48D" d="M169.143,86.243c0-2.801-1.304-4.484-4.07-4.484c-2.763,0-4.29,1.814-4.29,4.071
			c0,6.77,11.002,3.054,11.002,11.031c0,4.387-2.733,6.649-6.87,6.649c-4.259,0-6.615-2.291-6.615-6.741v-0.671h2.038v0.861
			c0,2.894,1.522,4.835,4.514,4.835c2.862,0,4.893-1.435,4.893-4.611c0-6.736-10.996-2.898-10.996-11.128
			c0-3.56,2.322-6.012,6.262-6.012c4.229,0,6.167,2.165,6.167,6.201H169.143z"/>
		<path fill="#B0A48D" d="M191.37,100.329h-0.068c-0.508,1.941-2.128,3.181-4.134,3.181c-3.716,0-5.404-2.991-5.404-8.837
			c0-5.822,1.688-8.809,5.404-8.809c2.101,0,3.528,1.143,3.941,2.923h0.063v-8.366h1.909v22.704h-1.712V100.329z M187.488,101.919
			c1.938,0,3.685-0.987,3.685-7.247c0-6.235-1.746-7.223-3.685-7.223c-1.908,0-3.687,0.987-3.687,7.223
			C183.802,100.932,185.58,101.919,187.488,101.919"/>
		<path fill="#B0A48D" d="M209.456,85.864c3.721,0,5.819,2.953,5.819,8.809c0,5.88-2.099,8.837-5.819,8.837
			c-3.719,0-5.819-2.958-5.819-8.837C203.637,88.816,205.737,85.864,209.456,85.864 M209.456,101.919
			c2.13,0,3.783-1.848,3.783-7.247c0-5.375-1.653-7.223-3.783-7.223c-2.128,0-3.784,1.848-3.784,7.223
			C205.672,100.071,207.328,101.919,209.456,101.919"/>
		<path fill="#B0A48D" d="M225.958,80.421h6.263c4.389,0,6.104,2.325,6.104,5.695c0,2.228-1.209,4.353-3.499,4.927v0.063
			c2.799,0.54,4.231,2.705,4.231,5.662c0,3.974-2.578,6.356-6.865,6.356h-6.233V80.421z M227.991,90.407h3.21
			c3.497,0,5.088-1.493,5.088-4.129c0-3.025-1.557-4.134-4.735-4.134h-3.562V90.407z M227.991,101.408h3.786
			c3.526,0,5.246-1.585,5.246-4.64c0-3.055-1.72-4.645-5.246-4.645h-3.786V101.408z"/>
		<polygon fill="#B0A48D" points="249.8,80.421 261.058,80.421 261.058,82.143 251.836,82.143 251.836,90.407 260.452,90.407 
			260.452,92.124 251.836,92.124 251.836,101.408 261.344,101.408 261.344,103.125 249.8,103.125 		"/>
		<polygon fill="#B0A48D" points="272.057,80.421 275.583,80.421 281.055,100.582 281.12,100.582 286.584,80.421 289.926,80.421 
			289.926,103.125 287.888,103.125 287.888,82.333 287.824,82.333 281.947,103.125 280.038,103.125 274.155,82.333 274.09,82.333 
			274.09,103.125 272.057,103.125 		"/>
	</g>
</g>
</svg>
