<svg xmlns="http://www.w3.org/2000/svg" width="39.023" height="31.694" viewBox="0 0 39.023 31.694"><path d="M35.012,11.467c.025.347.025.693.025,1.04,0,10.573-8.047,22.755-22.755,22.755A22.6,22.6,0,0,1,0,31.673a16.545,16.545,0,0,0,1.931.1,16.017,16.017,0,0,0,9.929-3.417,8.012,8.012,0,0,1-7.478-5.547,10.086,10.086,0,0,0,1.51.124A8.459,8.459,0,0,0,8,22.659,8,8,0,0,1,1.585,14.81v-.1A8.055,8.055,0,0,0,5.2,15.726a8.01,8.01,0,0,1-2.476-10.7A22.734,22.734,0,0,0,19.215,13.4a9.028,9.028,0,0,1-.2-1.832A8.005,8.005,0,0,1,32.858,6.094a15.746,15.746,0,0,0,5.076-1.931A7.976,7.976,0,0,1,34.418,8.57a16.033,16.033,0,0,0,4.606-1.238A17.192,17.192,0,0,1,35.012,11.467Z" transform="translate(0 -3.568)" fill="#f3f3f3"/></svg>