<svg xmlns="http://www.w3.org/2000/svg" width="40.533" height="28.5" viewBox="0 0 40.533 28.5"><path d="M40.795,9.209A5.093,5.093,0,0,0,37.211,5.6C34.05,4.75,21.375,4.75,21.375,4.75S8.7,4.75,5.539,5.6A5.093,5.093,0,0,0,1.955,9.209c-.847,3.182-.847,9.82-.847,9.82s0,6.638.847,9.82A5.017,5.017,0,0,0,5.539,32.4c3.161.852,15.836.852,15.836.852s12.675,0,15.836-.852a5.017,5.017,0,0,0,3.584-3.549c.847-3.182.847-9.82.847-9.82s0-6.638-.847-9.82ZM17.23,25.056V13l10.594,6.027Z" transform="translate(-1.108 -4.75)" fill="#f3f3f3"/></svg>