<svg xmlns="http://www.w3.org/2000/svg" width="210.609" height="193.389" viewBox="0 0 210.609 193.389"><g transform="matrix(0.259, 0.966, -0.966, 0.259, 458.691, -3855.594)" opacity="0.92"><rect width="30.908" height="30.908" transform="translate(3787.753 1309.353)" fill="#BB772E"/><path d="M285.751,300.3H248.22V262.77h37.531Zm-35.9-1.632h34.267V264.4H249.852Z" transform="translate(3551.676 1022.298)" fill="#3f3d56"/><rect width="30.908" height="30.908" transform="translate(3672.075 1404.882) rotate(74.063)" fill="#BB772E"/><path d="M134.212,422.241l-10.305-36.088L160,375.847,170.3,411.936Zm-8.288-34.967,9.409,32.95,32.95-9.409-9.409-32.95Z" transform="translate(3538.766 1034.041)" fill="#3f3d56"/><rect width="30.908" height="30.908" transform="matrix(-0.683, 0.731, -0.731, -0.683, 3693.985, 1273.599)" fill="#BB772E"/><path d="M112.781,279.643l25.626-27.42,27.42,25.626L140.2,305.269Zm25.7-25.114-23.4,25.036,25.036,23.4,23.4-25.036Z" transform="translate(3537.611 1021.203)" fill="#3f3d56"/></g></svg>