<svg xmlns="http://www.w3.org/2000/svg" xmlns:xlink="http://www.w3.org/1999/xlink" width="283.46" height="283.46" viewBox="0 0 283.46 283.46">
  <defs>
    <linearGradient id="linear-gradient" x1="0.5" y1="1" x2="0.5" gradientUnits="objectBoundingBox">
      <stop offset="0" stop-color="#bbd57f"/>
      <stop offset="0.237" stop-color="#98cd92"/>
      <stop offset="0.758" stop-color="#50bebb"/>
      <stop offset="1" stop-color="#34b9cc"/>
    </linearGradient>
    <linearGradient id="linear-gradient-4" y1="0.5" x2="1" y2="0.5" gradientUnits="objectBoundingBox">
      <stop offset="0" stop-color="#ffe815"/>
      <stop offset="0.289" stop-color="#ffdb1b"/>
      <stop offset="1" stop-color="#ffbf29"/>
    </linearGradient>
    <linearGradient id="linear-gradient-7" x1="0.091" y1="0.5" x2="7.596" y2="0.5" gradientUnits="objectBoundingBox">
      <stop offset="0" stop-color="#00a5d9"/>
      <stop offset="0.384" stop-color="#46b3bc"/>
      <stop offset="0.804" stop-color="#8ec29f"/>
      <stop offset="1" stop-color="#abc894"/>
    </linearGradient>
    <linearGradient id="linear-gradient-8" x1="-1.708" y1="0.5" x2="12.875" y2="0.5" xlink:href="#linear-gradient-7"/>
    <linearGradient id="linear-gradient-9" x1="-1.793" y1="0.5" x2="8.92" y2="0.5" xlink:href="#linear-gradient-7"/>
    <linearGradient id="linear-gradient-10" x1="-3.315" y1="0.5" x2="7.027" y2="0.5" xlink:href="#linear-gradient-7"/>
    <linearGradient id="linear-gradient-11" x1="-3.754" y1="0.5" x2="5.349" y2="0.5" xlink:href="#linear-gradient-7"/>
    <linearGradient id="linear-gradient-12" x1="-4.148" y1="0.5" x2="3.356" y2="0.5" xlink:href="#linear-gradient-7"/>
    <linearGradient id="linear-gradient-13" x1="-6.717" y1="0.5" x2="3.017" y2="0.5" xlink:href="#linear-gradient-7"/>
    <linearGradient id="linear-gradient-14" x1="-8.384" y1="0.5" x2="2.329" y2="0.5" xlink:href="#linear-gradient-7"/>
    <linearGradient id="linear-gradient-15" x1="-6.538" y1="0.5" x2="0.927" y2="0.5" xlink:href="#linear-gradient-7"/>
    <clipPath id="clip-Artboard_1">
      <rect width="283.46" height="283.46"/>
    </clipPath>
  </defs>
  <g id="Artboard_1" data-name="Artboard 1" clip-path="url(#clip-Artboard_1)">
    <rect width="283.46" height="283.46" fill="#fff"/>
    <g id="Group_4" data-name="Group 4">
      <g id="Group_3" data-name="Group 3">
        <g id="Group_1" data-name="Group 1">
          <path id="Path_1" data-name="Path 1" d="M104.93,26.652a51.659,51.659,0,0,0-30.337-9.8,52.985,52.985,0,0,0-8.332.669L199.123,150.364,213.892,135.6Z" fill="url(#linear-gradient)"/>
          <path id="Path_2" data-name="Path 2" d="M45.818,25.563A52.283,52.283,0,0,0,31.136,40.4L170.117,179.37,184.883,164.6Z" fill="url(#linear-gradient)"/>
          <path id="Path_3" data-name="Path 3" d="M23.29,61.042a51.744,51.744,0,0,0,12.123,41.646l105.7,105.682L155.874,193.6Z" fill="url(#linear-gradient)"/>
        </g>
        <g id="Group_2" data-name="Group 2">
          <path id="Path_4" data-name="Path 4" d="M208.869,16.462a51.677,51.677,0,0,0-34.361,13.046L68.37,135.639l14.765,14.77L216.519,17.033A52.2,52.2,0,0,0,208.869,16.462Z" fill="url(#linear-gradient-4)"/>
          <path id="Path_5" data-name="Path 5" d="M237.16,24.87,97.374,164.638,112.143,179.4,252.014,39.541A52.155,52.155,0,0,0,237.16,24.87Z" fill="url(#linear-gradient-4)"/>
          <path id="Path_6" data-name="Path 6" d="M260.745,68.337a52.032,52.032,0,0,0-.68-8.364L126.386,193.634,141.143,208.4,251,98.566A51.568,51.568,0,0,0,260.745,68.337Z" fill="url(#linear-gradient-4)"/>
        </g>
      </g>
    </g>
    <g id="Group_5" data-name="Group 5">
      <path id="Path_7" data-name="Path 7" d="M10.181,265.328l-.992-.495a3.737,3.737,0,0,1-2.477-2.643,2.453,2.453,0,0,0-.661-1.156,1.507,1.507,0,0,1-.495-.66A.97.97,0,0,1,6.271,259a9.518,9.518,0,0,1,1.1-.22c.275-.11.55-.166.825-.276a.449.449,0,0,0,.166-.772,3.45,3.45,0,0,0-.441-.439c-.385-.495-.385-.771,0-1.321.221-.331.5-.607.716-.882a.167.167,0,0,0,0-.22c-.055-.11-.165-.054-.275,0-.276.22-.551.441-.881.715-.055,0-.166.056-.166,0-.109-.054-.055-.164,0-.274a9.159,9.159,0,0,1,.606-.937c.055-.055.055-.164,0-.164,0-.056-.11-.056-.165-.056-.275.22-.55.5-.826.716-.33.275-.606.165-.716-.331a2.019,2.019,0,0,1,.165-1.486c.441-.771.827-1.541,1.267-2.313.605-1.156,1.211-2.311,1.762-3.523.606-1.267,1.376-2.479,1.982-3.69,1.047-2.147,2.148-4.239,2.973-6.442a48.248,48.248,0,0,1,2.864-6.167,5.374,5.374,0,0,1,.825-1.32,5.439,5.439,0,0,0,1.1-1.873c.275-.606,0-.991-.606-1.045h-.716c-.165-.056-.385-.056-.385-.166-.165-.441-.661-.495-.991-.716a.68.68,0,0,1-.221-.771,1.663,1.663,0,0,0,0-1.157,1.221,1.221,0,0,1,.221-1.211,2.764,2.764,0,0,1,.826-.77,15.741,15.741,0,0,1,4.46-1.763,4,4,0,0,0,.88-.221,8.01,8.01,0,0,1,3.359-.713,2.643,2.643,0,0,0,.661-.056,13.75,13.75,0,0,1,3.689.275,9.394,9.394,0,0,1,4.845,2.532,11.2,11.2,0,0,1,2.643,3.525,34.631,34.631,0,0,1,3.138,9.25,12.04,12.04,0,0,1,.276,2.422,2.435,2.435,0,0,0,.11.882,18.366,18.366,0,0,1-.11,3.028,1.942,1.942,0,0,1-.165.6,2.362,2.362,0,0,0-.331,1.211,3.2,3.2,0,0,1-.495,1.377c-.111.165-.33.44-.33.606.11.661-.276.991-.716,1.377a2.718,2.718,0,0,0-.606.936,5.887,5.887,0,0,1-.826,1.211,55.7,55.7,0,0,1-7.6,7.268c-1.6,1.321-3.248,2.533-4.955,3.745a2.075,2.075,0,0,0-.771.769,5.353,5.353,0,0,0-2.973,1.872,1.925,1.925,0,0,0-.936.331,27.151,27.151,0,0,0-4.074,2.368A1.7,1.7,0,0,1,15.8,265a8.68,8.68,0,0,0-2.642.551,4.3,4.3,0,0,1-1.432.221A3.1,3.1,0,0,1,10.181,265.328Zm2.037-9.525c0-.055-.055-.111-.055-.165s-.055-.056-.11-.056c-.055.056-.165.056-.276.11-.55.442-1.156.937-1.707,1.377-.11.111-.22.276-.33.386a.167.167,0,0,0,0,.22.22.22,0,0,0,.22.11A4.951,4.951,0,0,0,12.218,255.8Zm-.991-5.176c0-.055,0-.055-.056-.11h-.054a3.378,3.378,0,0,0-.276.661A1.257,1.257,0,0,0,11.227,250.627Zm1.542,9.471a26.518,26.518,0,0,0,2.808-1.376A56.133,56.133,0,0,0,27.3,250.077a7.42,7.42,0,0,0,.881-.991,2.935,2.935,0,0,0-.881.551c-.5.44-1.046.88-1.6,1.321-1.928,1.6-3.91,3.083-6,4.515a75.3,75.3,0,0,1-6.772,3.963c-.276.167-.551.332-.881.552v.164c0,.056.055.056.11.056C12.328,260.152,12.548,260.152,12.769,260.1Zm3.193-.551a51.442,51.442,0,0,0,9.58-6.5,2.211,2.211,0,0,0,.772-.825,1.6,1.6,0,0,0,.826-.661l.219-.221a.762.762,0,0,1,.221-.165.762.762,0,0,0-.221.165c-.055.11-.164.166-.219.221a1.96,1.96,0,0,0-.882.605,5.055,5.055,0,0,0-1.266.825,81.336,81.336,0,0,1-10.186,6.719,2.371,2.371,0,0,0-.386.221.2.2,0,0,0-.055.164c.055.054.111.11.166.054A5.584,5.584,0,0,0,15.962,259.547Zm-1.1-4.68a21.111,21.111,0,0,0,1.873-2.642,3.249,3.249,0,0,0,.22-.442.42.42,0,0,1-.055-.164c-.055,0-.165,0-.165.055a1.274,1.274,0,0,0-.385.385c-.441.606-.881,1.266-1.322,1.927a4.079,4.079,0,0,0-.385.661.248.248,0,0,0,0,.276C14.7,255.032,14.806,254.923,14.86,254.867Zm.882,8.534a18,18,0,0,0,2.973-1.321c1.817-.991,3.524-2.092,5.286-3.249.55-.385,1.156-.771,1.707-1.156a76.881,76.881,0,0,0,6.166-5.066c.551-.55,1.1-1.1,1.652-1.706.111-.055.111-.166.165-.221a.193.193,0,0,0-.054-.11h-.111a1.454,1.454,0,0,0-.771.5c-.881.715-1.761,1.487-2.642,2.2a99.866,99.866,0,0,1-8.81,6.386,43.476,43.476,0,0,1-6.112,3.249,1.173,1.173,0,0,0-.331.221c-.054.055-.164.164-.109.274,0,.165.165.165.275.165C15.3,263.512,15.521,263.457,15.742,263.4Zm.826-9.085c1.046-.715,2.092-1.322,3.138-2.091,1.157-.882,2.313-1.872,3.469-2.809.276-.221.605-.44.826-.661a9.207,9.207,0,0,1,2.037-1.816C27.3,246,28.185,244.68,29.4,243.69a2.076,2.076,0,0,0,.5-.662c.386-.55.827-1.1,1.267-1.651a3.794,3.794,0,0,0,.936-1.155,35.84,35.84,0,0,0,2.367-4.847,25.958,25.958,0,0,0,.771-3.468,2.27,2.27,0,0,0-.275-1.486,5.7,5.7,0,0,0-1.982-2.149,10.574,10.574,0,0,0-3.634-1.486c-.991-.165-1.927-.33-2.919-.5a2.281,2.281,0,0,0-1.211,0,5.624,5.624,0,0,1-1.652.166,6.549,6.549,0,0,0-2.312.33c-.385.11-.44.441-.165.661a1.877,1.877,0,0,1,.77,1.046,1.455,1.455,0,0,0,.882.99,2.152,2.152,0,0,1,.881,1.1,3.341,3.341,0,0,1,.33,1.211,9.818,9.818,0,0,1,.11,1.267c0,.219.055.44.331.5a.521.521,0,0,1,.384.66,9.128,9.128,0,0,1-.6,2.7,1.991,1.991,0,0,0-.331,1.1,1.031,1.031,0,0,1-.275.77,2.633,2.633,0,0,0-.715,1.267c-.055.274.11.274.33.219a13.912,13.912,0,0,1-.551,1.377,7.175,7.175,0,0,1-1.156,1.983c-.11-.111-.22-.166-.33-.111a1.292,1.292,0,0,0-.551.661,12.8,12.8,0,0,0-.991,1.927,6.674,6.674,0,0,1-.771,1.376,3.147,3.147,0,0,0-.44.716.877.877,0,0,0-.22.661c.33.055.44-.275.6-.439.11-.111.165-.222.331-.222,0,.056.055.111,0,.166a11.184,11.184,0,0,1-1.157,1.927c-.055-.055-.055-.109-.11-.165-.11-.166-.22-.11-.331,0s-.274.221-.164.44c0,.055.11.055.164,0a1.914,1.914,0,0,0,.441-.275,7.732,7.732,0,0,1-1.1,2.477,3.207,3.207,0,0,0-.606,1.323.328.328,0,0,0,.055.219A.247.247,0,0,0,16.568,254.316Zm1.376,10.022-.055.056Zm.771-41.076a30.34,30.34,0,0,1,7.323-1.541c.22-.055.441,0,.551-.22.11-.111-.166-.221-.551-.276h-.22a.968.968,0,0,0-.33.055,25.3,25.3,0,0,0-6.993,1.6,1.7,1.7,0,0,0-.441.22c-.11.054-.165.11-.11.22,0,.055.11.055.165.055C18.33,223.317,18.5,223.317,18.715,223.262Zm0,2.808c1.982-.385,3.965-.716,6-.936a3.868,3.868,0,0,0,.715-.11c.056-.055.11-.055.166-.11V224.8a.055.055,0,0,0-.056-.056,1.578,1.578,0,0,0-.495-.11,38.806,38.806,0,0,0-6.607.936,1.19,1.19,0,0,0-.331.22.105.105,0,0,0-.055.165.118.118,0,0,0,.111.11.416.416,0,0,0,.22.055A.7.7,0,0,1,18.715,226.07Zm-.055-2.2c1.817-.5,3.579-.934,5.4-1.266a1.648,1.648,0,0,0,.826-.274,2.708,2.708,0,0,0-1.156-.055,25,25,0,0,0-4.846,1.21,3.37,3.37,0,0,0-.66.276c-.055.055-.111.109-.055.165.055,0,.055.055.11.055C18.385,223.923,18.55,223.923,18.66,223.867Zm.771,39.7a.055.055,0,0,0-.055.056c-.056.055-.11.055-.22.11C19.266,263.677,19.32,263.622,19.431,263.566Zm-.22.166h0Zm1.431-.826a3.619,3.619,0,0,1-.44.165C20.367,263.017,20.477,262.961,20.642,262.906Zm-.385.165h0Zm.054-17.234c.056-.055.111-.055.111-.11,0,.055-.055.11-.055.166-.056.054-.056.054-.11,0Zm1.157-2.2a4.43,4.43,0,0,1-1.046,2.092A3.98,3.98,0,0,1,21.468,243.635Zm-.6,19.05c-.055.055-.166.111-.221.221C20.7,262.8,20.808,262.74,20.863,262.685Zm.66-.661h-.055a2.033,2.033,0,0,0,1.322-.549q.825-.662,1.651-1.323a2.246,2.246,0,0,0,.936-.384c.386-.276.881-.551,1.322-.827.055,0,.165-.054.165,0,.111.111,0,.165-.055.221a12.892,12.892,0,0,1-1.982,1.377,5.6,5.6,0,0,0-1.211.77c-.551.331-1.047.662-1.6.992a2.076,2.076,0,0,1-1.156.384Q21.193,262.357,21.523,262.024Zm-.275-35.568v-.111h-.165c-.111.055-.111.166,0,.166C21.138,226.511,21.193,226.456,21.248,226.456Zm.55,15.8c.055-.055.055-.055.055-.11s-.055,0-.109.055a.2.2,0,0,1-.055.165Zm1.6-2.423a3.363,3.363,0,0,0-.22.44A1.662,1.662,0,0,1,23.4,239.835Zm0,0h0Zm4.516,18.336c.054-.221.274-.331.44-.442.771-.605,1.6-1.21,2.422-1.816a45.705,45.705,0,0,0,3.91-3.414,24.372,24.372,0,0,0,3.248-3.523,5.044,5.044,0,0,0,.5-.55,4.191,4.191,0,0,1-1.1,1.762,29.581,29.581,0,0,1-2.148,2.421,35.122,35.122,0,0,1-3.083,2.643c-1.156.991-2.423,1.872-3.634,2.808a1.084,1.084,0,0,1-.441.22h-.055A.169.169,0,0,1,27.911,258.171Zm4.239-12.224a1.4,1.4,0,0,0,.44-.66l.22-.221c-.055.111-.165.165-.22.221a2.1,2.1,0,0,0-.6.606l.055.054C32.04,246,32.1,246,32.15,245.947Zm6.5,2.257a.433.433,0,0,1-.22.222A.433.433,0,0,0,38.647,248.2Zm.22-.385a1.365,1.365,0,0,1-.22.385C38.7,248.1,38.812,247.929,38.867,247.819Zm.11-.275v.11c-.055.055-.055.111-.11.165C38.922,247.709,38.977,247.654,38.977,247.544Z" fill="url(#linear-gradient-7)"/>
      <path id="Path_8" data-name="Path 8" d="M44.7,262.024c-.111-.164-.166-.439-.276-.66a.482.482,0,0,0-.716-.165c-.22.11-.44.33-.77.276a1.3,1.3,0,0,1-.661-.772,3.191,3.191,0,0,1-.22-1.046,1.678,1.678,0,0,0-.771-1.321,2.442,2.442,0,0,1-.881-1.6,5.533,5.533,0,0,1,.385-3.138,87.724,87.724,0,0,1,3.084-8.259c.33-.716.5-1.487.826-2.2.22-.55.55-1.1.771-1.652.495-1.212.936-2.422,1.376-3.689a22.661,22.661,0,0,1,1.542-3.579c.66-1.211,1.266-2.478,1.872-3.689a3.6,3.6,0,0,1,.66-.935,20.705,20.705,0,0,0,1.322-1.984,11.564,11.564,0,0,1,2.478-3.138,1.347,1.347,0,0,1,2.257.276,10.056,10.056,0,0,0,.936,1.211,2.147,2.147,0,0,1,.441,1.487,2.011,2.011,0,0,0,.33,1.487.737.737,0,0,1,.11.494c-.055.332-.11.661-.165.937-.441,1.321-.881,2.643-1.266,4.02a11.939,11.939,0,0,0-.661,1.486v.44c-.22.276-.5.551-.716.826a.273.273,0,0,0-.055.386c.22.166.165.33.11.55a13.735,13.735,0,0,1-.991,2.037.115.115,0,0,0-.22,0,3.049,3.049,0,0,1-.221.441l-.165.166c-.055.055,0,.11-.055.164.055,0,.11-.054.166-.109a2.447,2.447,0,0,0,.054-.276,1.337,1.337,0,0,0,.221-.386h.22a5.163,5.163,0,0,1-.551,1.542,11.881,11.881,0,0,0-.55,1.211,2.7,2.7,0,0,1-.936,1.377,1.665,1.665,0,0,0-.5.716c0,.055-.055.221.055.275.055,0,.22-.054.276-.054s.055-.056.11-.056a1.76,1.76,0,0,1-.5.881,1,1,0,0,0-.441.881.676.676,0,0,1-.275.771c-.33.165-.33.33-.22.661a.51.51,0,0,1-.165.661c-.441.274-.385.661-.385,1.1-.056.111-.111.165-.111.276-.22.274-.495.55-.385.99.11.331-.165.6-.331.882-.11.274-.385.495-.33.825a2.392,2.392,0,0,1-.33.385c-.11.166-.055.221.11.275a17.828,17.828,0,0,1-.881,2.919,6.792,6.792,0,0,1-.771,1.707v-.056c-.11.111-.275.221-.275.331a13.483,13.483,0,0,0-.385,2.147.806.806,0,0,1-.662.992,10.006,10.006,0,0,0-1.376.495A.4.4,0,0,1,44.7,262.024Zm3.248-3.744,1.872-5.23v0Zm6.883-17.179v0Z" fill="url(#linear-gradient-8)"/>
      <path id="Path_9" data-name="Path 9" d="M56.374,258.722a1.192,1.192,0,0,1-1.1-.826,6.088,6.088,0,0,0-.716-.937,2.509,2.509,0,0,1-.551-2.532,23.452,23.452,0,0,1,1.377-3.91,10.287,10.287,0,0,0,.495-1.157,24.311,24.311,0,0,1,1.322-2.972c.55-1.1,1.046-2.2,1.541-3.36a30.392,30.392,0,0,1,1.652-3.248c.716-1.377,1.432-2.807,2.093-4.184a31.405,31.405,0,0,1,1.927-3.249c.385-.715.771-1.487,1.211-2.2a27.377,27.377,0,0,1,2.643-3.468c.5-.552.991-1.157,1.432-1.708a16.56,16.56,0,0,1,2.862-2.7,4.651,4.651,0,0,1,1.817-.882,1.017,1.017,0,0,1,1.267.5,2.9,2.9,0,0,0,.661.77,2.581,2.581,0,0,1,.88,1.488,1.435,1.435,0,0,0,.5.88A2.392,2.392,0,0,1,78.4,226.4a15.489,15.489,0,0,0,.44,1.708A11.893,11.893,0,0,1,79,230.53c-.11,1.872-.221,3.8-.386,5.727-.055.44-.164.88-.22,1.321-.22,1.872-.606,3.634-.716,5.506-.055.937-.22,1.872-.33,2.809a14.478,14.478,0,0,0-.275,3.083,1.054,1.054,0,0,1-.056.44,31.66,31.66,0,0,0-.385,3.193,27.079,27.079,0,0,0-.275,3.689v.5a1.556,1.556,0,0,1-.826,1.376,3.124,3.124,0,0,1-.716.44c-.165.111-.441.166-.55-.054a.781.781,0,0,0-.827-.5.894.894,0,0,1-.881-.495,3.984,3.984,0,0,1-.44-.826,4.76,4.76,0,0,0-.606-.991,4.056,4.056,0,0,1-.935-2.477c0-.827-.056-1.6-.056-2.423-.054-1.432-.22-1.6-1.6-1.211-.606.165-1.157.274-1.762.44a.707.707,0,0,0-.661.055,4.19,4.19,0,0,1-1.377.331c-.825.054-1.651.164-2.478.219a2.893,2.893,0,0,0-.935.221.482.482,0,0,0-.5.275c-.165.22-.33.5-.5.77-.056.111-.111.277,0,.386.33.275.165.5-.056.606a1.423,1.423,0,0,0-.825,1.1c-.055.166-.111.275-.166.44h-.054a1.662,1.662,0,0,0,.22-.44c.165-.055.275-.11.44-.165a6.6,6.6,0,0,1-.826,1.652h-.22l-.055.054.055-.054h.22a2.513,2.513,0,0,1-.44,1.046l-.11-.11H58.8a.222.222,0,0,0,.221.11,2.261,2.261,0,0,1-.221.55,2.188,2.188,0,0,0-.5,1.156.958.958,0,0,1-1.377.661C56.759,258.887,56.539,258.722,56.374,258.722Zm3.909-4.9v0Zm1.046-2.092a1.4,1.4,0,0,1,.221-.385,3.321,3.321,0,0,0-.221.44Zm0,0v0Zm.386-.825h.055a1.647,1.647,0,0,0-.22.44C61.6,251.178,61.66,251.068,61.715,250.9Zm8.369-7.488a.7.7,0,0,0,.606-.6,8.751,8.751,0,0,0,.275-1.653c.11-1.487.22-2.973.44-4.46a2.2,2.2,0,0,0-.22-1.652c-.11-.11-.055-.33,0-.5,0-.054-.055-.109-.055-.164h-.165c-.33.5-.661.935-.991,1.377-.056.053,0,.109,0,.219h.165c.11-.055.22-.11.276,0,.055,0,.055.111,0,.166-.386.6-.716,1.21-1.1,1.761a3.468,3.468,0,0,1-.44.442c.165-.5.385-.993.606-1.488v.055a6.845,6.845,0,0,0-1.873,2.918,8.131,8.131,0,0,0-1.651,2.7,1.861,1.861,0,0,0-.5.826c0,.11.056.165.221.165a1.226,1.226,0,0,1,.276-.165,1.157,1.157,0,0,0,1.211.441C68.157,243.69,69.093,243.524,70.084,243.415Zm-1.872-3.69c.275-.44.44-.936.661-1.375-.221.274-.441.495-.661.769a1.913,1.913,0,0,1-.606.716,5.063,5.063,0,0,1-1.707,2.7,1.656,1.656,0,0,1,.221.441A25.073,25.073,0,0,0,68.212,239.725Zm-2.092,3.249a3.21,3.21,0,0,1-.221.441A3.21,3.21,0,0,0,66.12,242.974Zm1.1,7.1h0ZM73.5,224.144a.752.752,0,0,1,.165-.221c.11-.056.165-.165.22-.221h0l-.22.221a.752.752,0,0,1-.221.165.762.762,0,0,1-.165.221A.731.731,0,0,1,73.5,224.144Zm1.817,33.421c-.055-.055-.11-.11-.166-.055-.11,0-.165.11-.165.219.055,0,.11.056.165.056C75.26,257.729,75.315,257.675,75.315,257.565Zm-.166-35.13-.055.056Z" fill="url(#linear-gradient-9)"/>
      <path id="Path_10" data-name="Path 10" d="M99.263,259.657c-.11-.385-.275-.5-.605-.5a.827.827,0,0,1-.771-.551,1.614,1.614,0,0,1-.111-.5,3.1,3.1,0,0,0-.936-1.651,2.913,2.913,0,0,1-.44-.936c-.275-1.047-.661-2.147-.936-3.194a5.232,5.232,0,0,1-.33-1.762c.055-.606.44-.77,1.045-.5.055.055.111.055.166.111.716.549.936.494,1.156-.331.605-1.928,1.267-3.855,1.817-5.836.606-1.763,1.267-3.415,1.927-5.122a18.912,18.912,0,0,1,.661-1.872,38.46,38.46,0,0,1,1.817-4.075c.275-.439.165-1.045.33-1.541.056-.164-.055-.22-.22-.275a1.929,1.929,0,0,1-.5-.221.6.6,0,0,1-.33-.55c0-.22.055-.385.275-.44.166-.056.331-.056.551-.11a25.312,25.312,0,0,1,4.625-.387,9.253,9.253,0,0,0,1.211-.053.546.546,0,0,0,.166-.056.2.2,0,0,0-.221-.22,4.011,4.011,0,0,0-1.6-.111c-.826.055-1.652.111-2.478.221-.55.055-1.156.11-1.707.219a8.484,8.484,0,0,1,3.193-.55,37.073,37.073,0,0,1,4.295,0c.111,0,.276.056.386-.056a.767.767,0,0,0-.5-.274,14.807,14.807,0,0,0-4.4-.165,34.242,34.242,0,0,0-3.414.605c-.221.055-.386.111-.551-.11-.165-.11-.11-.385.055-.606a1.652,1.652,0,0,1,.936-.661,10.313,10.313,0,0,1,2.918-.715.418.418,0,0,0,.275-.054c1.487-.442,3.029-.111,4.571-.056a5.51,5.51,0,0,1,2.477.936,12.157,12.157,0,0,1,3.194,3.084,18.413,18.413,0,0,1,2.587,5.341,20.948,20.948,0,0,1,.936,3.413,17.271,17.271,0,0,1,.386,4.075,7.6,7.6,0,0,1-.605,3.137,2.043,2.043,0,0,1-.386.662,6.451,6.451,0,0,0-.275.6,2.492,2.492,0,0,1-1.322,1.652c-.055-.054-.11-.22-.22-.165-.165.055-.33.111-.385.221A21.478,21.478,0,0,1,116,251.122a5.369,5.369,0,0,0-.88.661,21.437,21.437,0,0,1-3.469,2.368,34.639,34.639,0,0,1-8.039,3.745c-.165.054-.386.054-.331.33a4.1,4.1,0,0,0,.881-.166,19.226,19.226,0,0,0,3.524-1.265,37.791,37.791,0,0,0,6.332-3.635,37.146,37.146,0,0,0,4.13-3.138,1.919,1.919,0,0,1,.495-.331,2.172,2.172,0,0,1-.55.826,11.343,11.343,0,0,1-.936.771c-.992.66-1.927,1.321-2.863,2.037a20.776,20.776,0,0,1-3.139,2.093,39.6,39.6,0,0,1-3.744,1.872,16.306,16.306,0,0,1-5.23,1.377,1.291,1.291,0,0,0-.992.439,2.642,2.642,0,0,1-1.376.772C99.594,259.934,99.373,259.934,99.263,259.657Zm3.634-2.477a10.8,10.8,0,0,0,2.258-.716c1.156-.551,2.423-1.156,3.578-1.762a7.7,7.7,0,0,0,1.762-1.212c.11-.055.221-.165.331-.219-.11.054-.221.164-.331.219a1.425,1.425,0,0,0-.936.166,25.2,25.2,0,0,1-5.506,2.534,8.992,8.992,0,0,0-1.156.384,1.986,1.986,0,0,0-.606.221.243.243,0,0,0-.109.329.762.762,0,0,0,.329.111A.938.938,0,0,0,102.9,257.18Zm-.606,1.266-.055-.055v.055Zm1.046-29.018h.386a3.74,3.74,0,0,1-.386.111h-.055C103.227,229.483,103.227,229.428,103.337,229.428Zm.441,24.282c.11,0,.22-.054.331-.054.054,0,.054-.11.109-.166h-.165c-.11.056-.165.166-.275.22-.11,0-.22.056-.33.056l-.055.054c0,.111.055.166.109.111A1.162,1.162,0,0,0,103.778,253.71Zm.44-.99a.2.2,0,0,1,.055-.111.842.842,0,0,0-.164-.11,1.189,1.189,0,0,0-.276.166c-.11,0-.11.109,0,.165a.17.17,0,0,1,.11.055C104.053,252.83,104.109,252.774,104.218,252.72Zm2.258-4.184a2.67,2.67,0,0,1,1.156-.771,4.875,4.875,0,0,0,1.652-.993,9.743,9.743,0,0,1,.826-.715,7.347,7.347,0,0,0,1.982-1.927,15.934,15.934,0,0,1,1.6-1.762,4.6,4.6,0,0,0,.607-.825c.605-.882,1.1-1.818,1.651-2.754.111-.275.22-.55.331-.77a1.6,1.6,0,0,0-.111-1.322,5.833,5.833,0,0,0-2.312-2.588,6.612,6.612,0,0,0-3.689-1.266,1.344,1.344,0,0,1-.44-.056c-.275,0-.551-.055-.827-.055-.5-.054-.66.165-.605.661.055.331.11.661.165.937a3.854,3.854,0,0,0,.551,1.981.767.767,0,0,1,.11.606,7.444,7.444,0,0,1-.5,1.817c-.22.991-.661,1.927-.991,2.973a15.794,15.794,0,0,1-1.542,3.414c-.11.056-.164.11-.164.221h.219a4.6,4.6,0,0,1-.44,1.1c-.275.717-.5,1.433-.715,2.2a.346.346,0,0,0,.385.385A2.523,2.523,0,0,0,106.476,248.536Zm-.386-3.415a.419.419,0,0,0,.055.221A.419.419,0,0,1,106.09,245.121Zm4.791-13.545-.165-.165a10.761,10.761,0,0,0-2.147-.33h-.441c-.22,0-.5-.055-.5.221s.276.219.5.274a10.568,10.568,0,0,0,1.376.11,8.942,8.942,0,0,0,1.212.055C110.826,231.741,110.936,231.686,110.881,231.576Zm-2.2,19a1.1,1.1,0,0,1,.44-.219,1.628,1.628,0,0,0-.44.219,1.284,1.284,0,0,0-.551.276s-.055.055,0,.055a.17.17,0,0,0,.11.055A.983.983,0,0,0,108.679,250.572Zm-.551-12.774,3.138,10.847a1.408,1.408,0,0,0-1.046.881h-.055A1.513,1.513,0,0,0,111.266,248.645Z" fill="url(#linear-gradient-10)"/>
      <path id="Path_11" data-name="Path 11" d="M135.106,260.539c-1.927-.11-3.855-.221-5.782-.165h-1.871a7.832,7.832,0,0,1-5.122-1.763,1.431,1.431,0,0,1-.55-.6c-.11-.277-.275-.606-.385-.882a5.859,5.859,0,0,0-.881-1.872,5.161,5.161,0,0,1-.606-1.981,2.791,2.791,0,0,1,.5-2.093,3.568,3.568,0,0,0,.605-1.1,36.755,36.755,0,0,1,3.084-6.056c0-.055.055-.111.11-.166a49.922,49.922,0,0,1,3.964-6.277c1.046-1.6,2.2-3.138,3.359-4.626a5.435,5.435,0,0,0,.605-1.1c.166-.5.661-.772.661-1.267,0-.221.33-.221.5-.332.055,0,.165-.109.11-.109,0-.165-.11-.165-.22-.165s-.165.055-.276.055c-.219.054-.44.165-.6,0a.676.676,0,0,1,.055-.716,1.8,1.8,0,0,1,.991-.826,11.116,11.116,0,0,1,2.588-.882,25.5,25.5,0,0,1,2.808-.495c1.542-.166,3.194-.274,4.79-.385.495-.054,1.046-.054,1.542-.11a4.992,4.992,0,0,1,2.367.329,3.676,3.676,0,0,1,.937.661,1.746,1.746,0,0,1,.33.882,1.738,1.738,0,0,0,.386,1.267,1.28,1.28,0,0,1,.164.275,1,1,0,0,1-.055,1.32.786.786,0,0,0-.22.771c.056.221-.11.387-.385.387a1.745,1.745,0,0,1-.771-.166,4.392,4.392,0,0,0-2.037-.44,28.2,28.2,0,0,0-3.745.164l-3.138.5a5.254,5.254,0,0,0-.881.22c-.22.056-.22.221-.22.441v-.054a2.924,2.924,0,0,0-1.322,1.706,20.1,20.1,0,0,1-1.651,3.47,11.468,11.468,0,0,0-.716,1.925.535.535,0,0,0,.385.606,3.561,3.561,0,0,0,1.322,0,13.42,13.42,0,0,1,2.092.055,2.018,2.018,0,0,1,1.1.5c.275.274.5.495.22.88a.423.423,0,0,0,.111.5c.22.164.385.274.605.439.165.11.386.22.606.386.495.5.44.77-.165,1.155l-.331.166c-.054.055-.054.11-.054.221a.118.118,0,0,0,.109.11c.166.055.386.11.606.164a.351.351,0,0,1,.166.551.932.932,0,0,1-.551.386c-.166.054-.386.054-.606.11a35.955,35.955,0,0,0-4.845.551,6.026,6.026,0,0,1-1.983.11,7.231,7.231,0,0,0-1.541-.056,2.479,2.479,0,0,0-.882.331.236.236,0,0,0-.385.11,1.652,1.652,0,0,0-.22.551v-.056a.268.268,0,0,1,.165.331,5.776,5.776,0,0,1-.936,1.6c-.11.111-.165.276-.275.387h.165a4.881,4.881,0,0,1-.6,1.706c-.056-.055-.111-.111-.221,0h.221a6.67,6.67,0,0,1-.276.991c-.055.331.055.551.386.606.715.11,1.431.22,2.2.33,1.817.165,3.634.441,5.451.771a7.8,7.8,0,0,1,1.211.385,2.315,2.315,0,0,1,1.431,1.156,1.836,1.836,0,0,0,.606.716,3.815,3.815,0,0,1,.551.441,1,1,0,0,1,.331,1.376c-.166.331,0,.5.22.716.386.331.275.661-.11.882a1.725,1.725,0,0,1-1.046.22C137.914,260.594,136.482,260.594,135.106,260.539Zm-1.486-14.646q1.816-.249,3.633-.5c.055,0,.11-.055.165-.11-.055-.056-.055-.056-.055-.11-.715.11-1.431.165-2.2.274-.55.056-1.157.11-1.707.221-.055,0-.11.055-.165.11.055.055.055.111.11.111Zm2.587-11.4c-.055-.055-.11-.11-.165-.055s-.055.109-.11.164c0,.111.055.166.11.166A.3.3,0,0,0,136.207,234.495Zm8.314-5.947a3.669,3.669,0,0,0,1.707-.22c-.55-.386-1.211-.111-1.652-.22a24.327,24.327,0,0,0-4.074.33c-.771.055-1.6.22-2.368.33a2.458,2.458,0,0,0-.606.166c-.054,0-.11.109-.11.165s.11.11.165.11a1.535,1.535,0,0,0,.5.055A64.067,64.067,0,0,1,144.521,228.548Zm-5.231,4.295v.109a2.852,2.852,0,0,1-.66.166,4.1,4.1,0,0,1-.826.056v.054A14.691,14.691,0,0,1,139.29,232.843Zm-.771-3.083c1.6-.165,3.194-.441,4.846-.551.715-.055,1.431-.166,2.148-.221a.2.2,0,0,0,.054-.166c-.495,0-.991-.054-1.431-.054a51.439,51.439,0,0,0-5.837.66.921.921,0,0,0-.275.111.075.075,0,0,0,0,.109.2.2,0,0,0,.056.112A1.178,1.178,0,0,0,138.519,229.76Zm.331,2.257a42.8,42.8,0,0,1,7.048-.715,3.155,3.155,0,0,0,.715-.111c.055,0,.111-.11.111-.165s-.056-.111-.111-.166a5.418,5.418,0,0,0-1.651-.11c-.716,0-1.432.056-2.148.11a35.923,35.923,0,0,0-4.239.606c-.165.055-.33.166-.495.22v.221a.053.053,0,0,0,.054.054.809.809,0,0,0,.33.056Zm6.938.22a.351.351,0,0,1,.33,0c.11,0,.055-.166.055,0a.054.054,0,0,1-.055.055h-.275C145.732,232.292,145.678,232.237,145.788,232.237Z" fill="url(#linear-gradient-11)"/>
      <path id="Path_12" data-name="Path 12" d="M162.413,265.328l-.991-.495a3.738,3.738,0,0,1-2.478-2.643,2.451,2.451,0,0,0-.66-1.156,1.494,1.494,0,0,1-.5-.66.97.97,0,0,1,.717-1.377,9.449,9.449,0,0,1,1.1-.22c.275-.11.551-.166.827-.276a.449.449,0,0,0,.164-.772,3.438,3.438,0,0,0-.44-.439c-.386-.495-.386-.771,0-1.321.221-.331.495-.607.716-.882a.167.167,0,0,0,0-.22c-.056-.11-.166-.054-.276,0-.275.22-.55.441-.88.715-.056,0-.166.056-.166,0-.111-.054-.055-.164,0-.274a8.991,8.991,0,0,1,.606-.937c.055-.055.055-.164,0-.164,0-.056-.11-.056-.166-.056-.274.22-.551.5-.826.716-.33.275-.6.165-.715-.331a2.019,2.019,0,0,1,.165-1.486c.441-.771.825-1.541,1.266-2.313.6-1.156,1.213-2.311,1.763-3.523.6-1.267,1.376-2.479,1.982-3.69,1.046-2.147,2.146-4.239,2.973-6.442a48.509,48.509,0,0,1,2.862-6.167,5.44,5.44,0,0,1,.827-1.32,5.436,5.436,0,0,0,1.1-1.873c.275-.606,0-.991-.606-1.045h-.716c-.165-.056-.384-.056-.384-.166-.166-.441-.662-.495-.992-.716a.68.68,0,0,1-.22-.771,1.668,1.668,0,0,0,0-1.157,1.223,1.223,0,0,1,.22-1.211,2.764,2.764,0,0,1,.826-.77,15.765,15.765,0,0,1,4.46-1.763,4.013,4.013,0,0,0,.881-.221,8,8,0,0,1,3.359-.713,2.647,2.647,0,0,0,.661-.056,13.742,13.742,0,0,1,3.688.275,9.394,9.394,0,0,1,4.845,2.532,11.206,11.206,0,0,1,2.644,3.525,34.593,34.593,0,0,1,3.137,9.25,12.042,12.042,0,0,1,.277,2.422,2.414,2.414,0,0,0,.11.882,18.478,18.478,0,0,1-.11,3.028,1.942,1.942,0,0,1-.166.6,2.36,2.36,0,0,0-.329,1.211,3.2,3.2,0,0,1-.5,1.377c-.11.165-.33.44-.33.606.111.661-.276.991-.715,1.377a2.72,2.72,0,0,0-.607.936A5.922,5.922,0,0,1,190,248.37a55.753,55.753,0,0,1-7.6,7.268c-1.6,1.321-3.249,2.533-4.956,3.745a2.073,2.073,0,0,0-.77.769,5.346,5.346,0,0,0-2.973,1.872,1.918,1.918,0,0,0-.936.331,27.16,27.16,0,0,0-4.075,2.368,1.7,1.7,0,0,1-.661.275,8.68,8.68,0,0,0-2.642.551,4.3,4.3,0,0,1-1.432.221A3.11,3.11,0,0,1,162.413,265.328Zm2.037-9.525c0-.055-.055-.111-.055-.165s-.055-.056-.11-.056c-.055.056-.165.056-.275.11-.55.442-1.156.937-1.706,1.377-.111.111-.221.276-.331.386a.165.165,0,0,0,0,.22.219.219,0,0,0,.22.11A4.949,4.949,0,0,0,164.45,255.8Zm-.99-5.176c0-.055,0-.055-.056-.11h-.054a3.383,3.383,0,0,0-.277.661A1.259,1.259,0,0,0,163.46,250.627ZM165,260.1a26.628,26.628,0,0,0,2.809-1.376,56.244,56.244,0,0,0,11.728-8.645,7.554,7.554,0,0,0,.88-.991,2.906,2.906,0,0,0-.88.551c-.5.44-1.047.88-1.6,1.321-1.927,1.6-3.91,3.083-6,4.515a75.16,75.16,0,0,1-6.772,3.963c-.274.167-.551.332-.881.552v.164c0,.056.055.056.11.056C164.56,260.152,164.781,260.152,165,260.1Zm3.193-.551a51.449,51.449,0,0,0,9.581-6.5,2.216,2.216,0,0,0,.771-.825,1.6,1.6,0,0,0,.826-.661c.056-.055.11-.111.22-.221a.729.729,0,0,1,.22-.165.729.729,0,0,0-.22.165c-.054.11-.164.166-.22.221a1.952,1.952,0,0,0-.881.605,5.037,5.037,0,0,0-1.266.825,81.42,81.42,0,0,1-10.187,6.719,2.358,2.358,0,0,0-.385.221.2.2,0,0,0-.055.164c.055.054.11.11.166.054A5.562,5.562,0,0,0,168.194,259.547Zm-1.1-4.68a21.111,21.111,0,0,0,1.873-2.642,3.114,3.114,0,0,0,.219-.442.425.425,0,0,1-.054-.164c-.055,0-.165,0-.165.055a1.266,1.266,0,0,0-.386.385c-.441.606-.881,1.266-1.321,1.927a4.087,4.087,0,0,0-.386.661.248.248,0,0,0,0,.276C166.928,255.032,167.038,254.923,167.093,254.867Zm.882,8.534a18.028,18.028,0,0,0,2.972-1.321c1.818-.991,3.524-2.092,5.286-3.249.551-.385,1.157-.771,1.707-1.156a76.708,76.708,0,0,0,6.166-5.066c.552-.55,1.1-1.1,1.653-1.706.11-.055.11-.166.166-.221a.191.191,0,0,0-.056-.11h-.11a1.454,1.454,0,0,0-.771.5c-.882.715-1.761,1.487-2.643,2.2a99.719,99.719,0,0,1-8.81,6.386,43.509,43.509,0,0,1-6.11,3.249,1.149,1.149,0,0,0-.332.221c-.055.055-.165.164-.11.274,0,.165.165.165.276.165C167.533,263.512,167.754,263.457,167.975,263.4Zm.825-9.085c1.047-.715,2.093-1.322,3.138-2.091,1.158-.882,2.313-1.872,3.469-2.809a10.47,10.47,0,0,0,.826-.661,9.247,9.247,0,0,1,2.036-1.816c1.269-.937,2.149-2.259,3.36-3.249a2.047,2.047,0,0,0,.495-.662c.387-.55.826-1.1,1.267-1.651a3.794,3.794,0,0,0,.936-1.155,35.838,35.838,0,0,0,2.367-4.847,26.12,26.12,0,0,0,.772-3.468,2.276,2.276,0,0,0-.275-1.486,5.718,5.718,0,0,0-1.982-2.149,10.587,10.587,0,0,0-3.635-1.486c-.991-.165-1.928-.33-2.918-.5a2.285,2.285,0,0,0-1.212,0,5.621,5.621,0,0,1-1.652.166,6.552,6.552,0,0,0-2.312.33c-.384.11-.44.441-.165.661a1.878,1.878,0,0,1,.771,1.046,1.451,1.451,0,0,0,.882.99,2.15,2.15,0,0,1,.88,1.1,3.324,3.324,0,0,1,.331,1.211,10,10,0,0,1,.11,1.267c0,.219.055.44.33.5a.524.524,0,0,1,.386.66,9.131,9.131,0,0,1-.607,2.7,2,2,0,0,0-.33,1.1,1.028,1.028,0,0,1-.276.77,2.642,2.642,0,0,0-.716,1.267c-.054.274.11.274.331.219a14.4,14.4,0,0,1-.55,1.377,7.225,7.225,0,0,1-1.156,1.983c-.11-.111-.221-.166-.331-.111a1.3,1.3,0,0,0-.551.661,12.7,12.7,0,0,0-.99,1.927,6.768,6.768,0,0,1-.771,1.376,3.112,3.112,0,0,0-.44.716.881.881,0,0,0-.221.661c.33.055.44-.275.606-.439.11-.111.165-.222.33-.222,0,.056.055.111,0,.166a11.117,11.117,0,0,1-1.156,1.927c-.056-.055-.056-.109-.111-.165-.109-.166-.219-.11-.33,0s-.276.221-.166.44c0,.055.112.055.166,0a1.957,1.957,0,0,0,.441-.275,7.775,7.775,0,0,1-1.1,2.477,3.194,3.194,0,0,0-.606,1.323.328.328,0,0,0,.055.219A.245.245,0,0,0,168.8,254.316Zm1.377,10.022-.056.056Zm.77-41.076a30.343,30.343,0,0,1,7.322-1.541c.222-.055.442,0,.552-.22.11-.111-.165-.221-.552-.276h-.218a.969.969,0,0,0-.331.055,25.307,25.307,0,0,0-6.993,1.6,1.677,1.677,0,0,0-.44.22c-.11.054-.166.11-.11.22,0,.055.11.055.165.055C170.562,223.317,170.727,223.317,170.947,223.262Zm0,2.808c1.983-.385,3.965-.716,6-.936a3.9,3.9,0,0,0,.717-.11c.054-.055.109-.055.164-.11V224.8a.055.055,0,0,0-.055-.056,1.583,1.583,0,0,0-.5-.11,38.806,38.806,0,0,0-6.607.936,1.172,1.172,0,0,0-.33.22.1.1,0,0,0-.055.165.117.117,0,0,0,.11.11.419.419,0,0,0,.221.055A.692.692,0,0,1,170.947,226.07Zm-.054-2.2c1.816-.5,3.578-.934,5.4-1.266a1.647,1.647,0,0,0,.825-.274,2.707,2.707,0,0,0-1.156-.055,24.988,24.988,0,0,0-4.845,1.21,3.378,3.378,0,0,0-.661.276c-.055.055-.11.109-.055.165.055,0,.055.055.111.055C170.618,223.923,170.782,223.923,170.893,223.867Zm.77,39.7a.055.055,0,0,0-.055.056c-.054.055-.11.055-.22.11C171.5,263.677,171.554,263.622,171.663,263.566Zm-.22.166h0Zm1.432-.826a3.683,3.683,0,0,1-.44.165C172.6,263.017,172.709,262.961,172.875,262.906Zm-.386.165h0Zm.056-17.234c.054-.055.109-.055.109-.11,0,.055-.055.11-.055.166-.054.054-.054.054-.11,0Zm1.156-2.2a4.423,4.423,0,0,1-1.047,2.092A3.974,3.974,0,0,1,173.7,243.635Zm-.605,19.05c-.056.055-.166.111-.221.221C172.93,262.8,173.04,262.74,173.1,262.685Zm.66-.661H173.7a2.031,2.031,0,0,0,1.321-.549q.826-.662,1.652-1.323a2.246,2.246,0,0,0,.936-.384c.385-.276.881-.551,1.321-.827.055,0,.166-.054.166,0,.11.111,0,.165-.056.221a12.845,12.845,0,0,1-1.982,1.377,5.6,5.6,0,0,0-1.211.77c-.551.331-1.046.662-1.6.992a2.076,2.076,0,0,1-1.155.384Zm-.276-35.568v-.111h-.165c-.109.055-.109.166,0,.166C173.37,226.511,173.425,226.456,173.48,226.456Zm.55,15.8c.056-.055.056-.055.056-.11s-.056,0-.11.055a.2.2,0,0,1-.055.165Zm1.6-2.423a3.523,3.523,0,0,0-.221.44A1.7,1.7,0,0,1,175.628,239.835Zm0,0h0Zm4.516,18.336c.053-.221.274-.331.439-.442.771-.605,1.6-1.21,2.423-1.816a45.693,45.693,0,0,0,3.909-3.414,24.436,24.436,0,0,0,3.249-3.523,5.145,5.145,0,0,0,.495-.55,4.189,4.189,0,0,1-1.1,1.762,29.6,29.6,0,0,1-2.149,2.421,34.833,34.833,0,0,1-3.083,2.643c-1.156.991-2.422,1.872-3.634,2.808a1.078,1.078,0,0,1-.441.22H180.2A.17.17,0,0,1,180.144,258.171Zm4.239-12.224a1.413,1.413,0,0,0,.439-.66l.221-.221c-.055.111-.165.165-.221.221a2.1,2.1,0,0,0-.605.606l.055.054C184.272,246,184.327,246,184.383,245.947Zm6.5,2.257a.439.439,0,0,1-.221.222A.439.439,0,0,0,190.88,248.2Zm.22-.385a1.389,1.389,0,0,1-.22.385C190.935,248.1,191.044,247.929,191.1,247.819Zm.11-.275v.11c-.056.055-.056.111-.11.165C191.154,247.709,191.21,247.654,191.21,247.544Z" fill="url(#linear-gradient-12)"/>
      <path id="Path_13" data-name="Path 13" d="M200.953,259.327a5.063,5.063,0,0,1-1.211-.936,30.448,30.448,0,0,1-3.138-3.91,13.967,13.967,0,0,1-1.487-3.909c-.11-.5-.165-.935-.275-1.431a6.884,6.884,0,0,1-.056-2.369c.166-1.045.331-2.037.441-3.027a13.583,13.583,0,0,1,1.211-4.185c.5-1.1.827-2.2,1.377-3.3a29.276,29.276,0,0,1,1.982-3.305,3.087,3.087,0,0,0,.275-.439,26.715,26.715,0,0,1,3.139-4.681c.165-.275.441-.44.6-.716a10.5,10.5,0,0,0,1.1-1.1,15.744,15.744,0,0,1,3.744-3.139,8.545,8.545,0,0,1,2.257-.826,1.117,1.117,0,0,1,1.377.716,3.438,3.438,0,0,0-2.533,1.266v-.055a6.145,6.145,0,0,0,2.478-1.211,4.941,4.941,0,0,0,1.541.22,4.935,4.935,0,0,1,3.909,1.652,24.6,24.6,0,0,1,1.983,2.2,12.25,12.25,0,0,1,2.423,5.45,18.88,18.88,0,0,1,.055,6.332,13.972,13.972,0,0,1-.441,2.644.413.413,0,0,0-.055.219,10.589,10.589,0,0,1-1.211,4.074c-.166-.11-.331-.11-.385.111-.056,0,0,.11,0,.165a.053.053,0,0,0,.054-.055c.112-.055.221-.165.331-.221a14.928,14.928,0,0,1-1.542,3.745c-.66,1.157-1.376,2.313-2.147,3.414a28.047,28.047,0,0,1-3.194,3.965,18.144,18.144,0,0,1-3.249,2.587c-.274.111-.55.22-.77.331a.785.785,0,0,0-.826.165,5.532,5.532,0,0,1-3.469.826A8.659,8.659,0,0,1,200.953,259.327Zm4.185-6.553c.6-.549,1.211-1.046,1.817-1.6a21.218,21.218,0,0,0,2.7-3.194,17.673,17.673,0,0,0,1.873-2.642c.44-.716.827-1.432,1.322-2.148a23.338,23.338,0,0,0,1.816-3.249,27.625,27.625,0,0,0,1.1-2.7,16.9,16.9,0,0,0,1.32-7.872,4.938,4.938,0,0,0-.109-.937c-.111-.385-.332-.55-.716-.441-.386.056-.772.165-1.212.22a4.248,4.248,0,0,0-1.982.661,3.523,3.523,0,0,1-1.048.441.2.2,0,0,1-.164-.055c0-.055,0-.165.056-.165.659-.441,1.321-.882,2.036-1.323a1.723,1.723,0,0,0,.661-.439c.055-.055,0-.166,0-.221a.192.192,0,0,0-.109-.055,1.715,1.715,0,0,0-.5.166,10.257,10.257,0,0,0-1.707.935,6.113,6.113,0,0,0-2.422,2.313c-.331.551-.772,1.1-1.157,1.707-.055-.111,0-.221-.055-.329-.11-.167-.275,0-.331.108a6.006,6.006,0,0,0-1.1,2.313,1.54,1.54,0,0,0-.331.275c-.274.276-.384.607-.219.552a.621.621,0,0,0,.385-.442,2.783,2.783,0,0,1,.165-.385,6.39,6.39,0,0,0,.606-.661,40.63,40.63,0,0,1-2.038,4.129,4.9,4.9,0,0,1-.771,1.1,1.409,1.409,0,0,0-.55.715c0,.11-.055.275,0,.331.11.054.166-.056.276-.166a.2.2,0,0,0,.165-.055c0,.055.055.165.055.221a5.537,5.537,0,0,1-.662,1.266c-.109.055-.274.055-.384.165a.416.416,0,0,0-.111.275c0,.166.165.166.276.22a3.22,3.22,0,0,1-.44,1.211c-.055,0-.055-.165-.166,0h.22a7.413,7.413,0,0,0-.22,1.046,35.043,35.043,0,0,0-1.266,9.251c-.055.056-.165.11-.221.221a.433.433,0,0,1,.221-.221c.055.056.166.056.275.165a.919.919,0,0,0,1.211.111A7.448,7.448,0,0,0,205.138,252.774Zm-1.762-20.757a.055.055,0,0,0,.055-.056c-.055-.054-.055-.054-.111.056a.2.2,0,0,0-.054.165C203.32,232.126,203.32,232.071,203.376,232.017Zm1.1-1.763a.713.713,0,0,0,.22-.165,1.585,1.585,0,0,0,.221-.441c.055-.053.165-.165.22-.22s.11-.109.22-.219v.055c-.054.055-.165.111-.22.164-.055.111-.165.167-.22.22a1.585,1.585,0,0,1-.221.441.8.8,0,0,0-.165.221.978.978,0,0,0-.44.6A1.024,1.024,0,0,0,204.477,230.254Zm-.166,10.9c-.053.22-.164.44-.219.66C204.147,241.6,204.258,241.377,204.311,241.157Zm1.874-5.01v0c-.332.384-.5.715-.332.6C206.074,236.642,206.129,236.367,206.185,236.147Zm.384,18.83a9.552,9.552,0,0,0,3.8-3.745,1.66,1.66,0,0,1,.221-.439c-.055.165-.165.275-.221.439-.055.056-.109.056-.165.111-1.377.991-2.532,2.258-3.8,3.359-.11.055-.11.165-.055.275Zm.882-28.246c.054-.054.109-.166.22-.22a.766.766,0,0,0,.165-.221.428.428,0,0,0,.221-.22.733.733,0,0,0,.219-.166c.055-.109.165-.165.221-.219-.056.054-.166.11-.221.219-.055.056-.166.112-.219.166a.428.428,0,0,1-.221.22c-.055.055-.11.166-.165.221a.419.419,0,0,0-.22.22.437.437,0,0,0-.221.219C207.285,226.842,207.4,226.786,207.451,226.731Zm.606,28.246a8.878,8.878,0,0,0,2.256-2.037,2.8,2.8,0,0,0,.5-.881,22.01,22.01,0,0,0-2.918,2.643c-.11.111-.165.221-.055.275C207.891,255.032,208,254.977,208.057,254.977Zm.164-22.3a1.083,1.083,0,0,1,.5-.5,1.417,1.417,0,0,1-.386.6h-.055A.169.169,0,0,1,208.221,232.678Zm1.266,25.107a7,7,0,0,0,1.927-1.432,52.157,52.157,0,0,0,3.855-4.679c.055-.11.11-.165,0-.331-.055.055-.165.11-.22.166-.5.495-1.046.99-1.487,1.485a29.2,29.2,0,0,1-4.129,4.13c-.165.166-.386.331-.441.551-.056.054,0,.11.055.165a.054.054,0,0,0,.055.056A3.574,3.574,0,0,0,209.487,257.785Zm0-27.144a1.671,1.671,0,0,0,.221-.441c.055-.055,0-.111-.056-.165H209.6l-.385.386c-.111.165-.111.385,0,.385A1.284,1.284,0,0,0,209.487,230.641Zm2.038,27.2v.056c-.055,0-.111,0-.111.054C211.47,257.9,211.525,257.84,211.525,257.84Zm1.156-.881a3.034,3.034,0,0,0,.5-.385c.715-.826,1.43-1.651,2.146-2.533a26.8,26.8,0,0,0,2.863-4.184,3.291,3.291,0,0,0,.551-1.377,1.51,1.51,0,0,0,.44-.826,1.244,1.244,0,0,0-.44.882,10.346,10.346,0,0,0-1.6,2.146,11.651,11.651,0,0,1-1.157,1.707c-.88,1.267-1.871,2.368-2.806,3.524a2.455,2.455,0,0,0-.661.882c-.056.054.053.108.053.164S212.681,257.014,212.681,256.959Zm1.6-10.571a1.092,1.092,0,0,0-.331.661C214.058,246.828,214.389,246.718,214.278,246.388Zm.826-1.488a.2.2,0,0,0,.054-.165,1.594,1.594,0,0,0,.221-.44h.056l-.056.056c-.055.11-.11.275-.165.384-.056.055-.11.111-.165.111,0,.054-.055.054-.055.11C215.049,245.011,215.1,245.011,215.1,244.9Zm5.561-2.752c.22-.385.11-.771.165-1.157.055-.055.109-.11.109-.164a.191.191,0,0,1,.056-.11c-.056-.056-.11,0-.11.055a.328.328,0,0,1-.055.219,3.853,3.853,0,0,0-.44,1.1c0,.055.055.165.11.165A.791.791,0,0,0,220.665,242.148Z" fill="url(#linear-gradient-13)"/>
      <path id="Path_14" data-name="Path 14" d="M222.15,258.722a1.191,1.191,0,0,1-1.1-.826,5.963,5.963,0,0,0-.716-.937,2.511,2.511,0,0,1-.551-2.532,23.454,23.454,0,0,1,1.377-3.91,10.107,10.107,0,0,0,.5-1.157,24.463,24.463,0,0,1,1.322-2.972c.55-1.1,1.046-2.2,1.543-3.36a30.015,30.015,0,0,1,1.651-3.248c.716-1.377,1.432-2.807,2.093-4.184a31.4,31.4,0,0,1,1.926-3.249c.385-.715.771-1.487,1.211-2.2a27.384,27.384,0,0,1,2.644-3.468c.495-.552.99-1.157,1.431-1.708a16.6,16.6,0,0,1,2.863-2.7,4.644,4.644,0,0,1,1.817-.882,1.016,1.016,0,0,1,1.266.5,2.952,2.952,0,0,0,.661.77,2.594,2.594,0,0,1,.882,1.488,1.429,1.429,0,0,0,.495.88,2.4,2.4,0,0,1,.716,1.376,15.269,15.269,0,0,0,.44,1.708,11.892,11.892,0,0,1,.165,2.422c-.11,1.872-.22,3.8-.386,5.727-.054.44-.165.88-.219,1.321-.221,1.872-.606,3.634-.716,5.506-.056.937-.221,1.872-.331,2.809a14.675,14.675,0,0,0-.275,3.083,1.072,1.072,0,0,1-.055.44,31.094,31.094,0,0,0-.385,3.193,26.922,26.922,0,0,0-.276,3.689v.5a1.556,1.556,0,0,1-.826,1.376,3.082,3.082,0,0,1-.716.44c-.164.111-.44.166-.55-.054a.779.779,0,0,0-.825-.5.894.894,0,0,1-.882-.495,3.94,3.94,0,0,1-.441-.826,4.8,4.8,0,0,0-.6-.991,4.058,4.058,0,0,1-.937-2.477c0-.827-.054-1.6-.054-2.423-.056-1.432-.22-1.6-1.6-1.211-.6.165-1.155.274-1.763.44a.7.7,0,0,0-.659.055,4.2,4.2,0,0,1-1.377.331c-.826.054-1.652.164-2.477.219a2.9,2.9,0,0,0-.937.221.48.48,0,0,0-.495.275,9.034,9.034,0,0,0-.495.77c-.056.111-.11.277,0,.386.329.275.164.5-.056.606a1.422,1.422,0,0,0-.826,1.1c-.055.166-.11.275-.165.44H225.4a1.608,1.608,0,0,0,.221-.44c.165-.055.275-.11.441-.165a6.636,6.636,0,0,1-.826,1.652h-.22l-.055.054.055-.054h.22a2.5,2.5,0,0,1-.441,1.046l-.11-.11h-.11a.219.219,0,0,0,.22.11,2.3,2.3,0,0,1-.22.55,2.2,2.2,0,0,0-.5,1.156.958.958,0,0,1-1.377.661C222.536,258.887,222.315,258.722,222.15,258.722Zm3.91-4.9v0Zm1.046-2.092a1.368,1.368,0,0,1,.22-.385,3.1,3.1,0,0,0-.22.44Zm0,0v0Zm.385-.825h.055a1.617,1.617,0,0,0-.22.44C227.381,251.178,227.435,251.068,227.491,250.9Zm8.369-7.488a.7.7,0,0,0,.606-.6,8.674,8.674,0,0,0,.276-1.653c.11-1.487.22-2.973.44-4.46a2.2,2.2,0,0,0-.22-1.652c-.11-.11-.056-.33,0-.5,0-.054-.056-.109-.056-.164h-.164c-.331.5-.661.935-.992,1.377-.055.053,0,.109,0,.219h.166c.11-.055.219-.11.274,0,.055,0,.055.111,0,.166-.384.6-.715,1.21-1.1,1.761a3.408,3.408,0,0,1-.441.442c.164-.5.385-.993.606-1.488v.055a6.834,6.834,0,0,0-1.872,2.918,8.138,8.138,0,0,0-1.653,2.7,1.874,1.874,0,0,0-.495.826c0,.11.056.165.221.165a1.253,1.253,0,0,1,.274-.165,1.159,1.159,0,0,0,1.211.441C233.934,243.69,234.869,243.524,235.86,243.415Zm-1.872-3.69c.276-.44.441-.936.661-1.375-.22.274-.441.495-.661.769a1.911,1.911,0,0,1-.605.716,5.065,5.065,0,0,1-1.708,2.7,1.686,1.686,0,0,1,.221.441A24.967,24.967,0,0,0,233.988,239.725Zm-2.092,3.249a3.328,3.328,0,0,1-.221.441A3.328,3.328,0,0,0,231.9,242.974Zm1.1,7.1h0Zm6.276-25.933a.77.77,0,0,1,.166-.221c.111-.056.165-.165.22-.221h0c-.055.056-.109.111-.22.221a.767.767,0,0,1-.219.165.8.8,0,0,1-.166.221A.732.732,0,0,1,239.273,224.144Zm1.819,33.421c-.056-.055-.111-.11-.166-.055-.111,0-.165.11-.165.219.054,0,.11.056.165.056C241.036,257.729,241.092,257.675,241.092,257.565Zm-.166-35.13-.055.056Z" fill="url(#linear-gradient-14)"/>
      <path id="Path_15" data-name="Path 15" d="M276.383,264.228c-2.2-1.046-4.515-1.873-6.773-2.809-3.248-1.267-6.5-2.422-9.8-3.634-1.652-.55-3.3-1.156-4.956-1.706l-.66-.166c-.055-.055-.166,0-.22.056-.056.11,0,.221.11.221.716.329,1.486.659,2.2.934,3.249,1.156,6.552,2.259,9.8,3.415,2.258.825,4.46,1.762,6.718,2.643a4.788,4.788,0,0,1,1.156.661,19.781,19.781,0,0,1-2.533-.882c-1.818-.716-3.634-1.432-5.451-2.093-2.2-.826-4.459-1.541-6.663-2.311-1.431-.551-2.863-1.047-4.295-1.543a10.893,10.893,0,0,0-1.21-.44.753.753,0,0,0-1.047.55c-.329,1.322-1.046,2.423-1.376,3.744-.056.331-.165.607-.606.5-.275-.109-.5.111-.717.276a1.843,1.843,0,0,1-.825.495c-.331.11-.5,0-.605-.33a.7.7,0,0,0-.055-.33.186.186,0,0,0-.275-.166c-.276,0-.5.276-.827.11a1.633,1.633,0,0,1-.66-.825,4.942,4.942,0,0,1-.441-1.983v0c-.825-.054-.99-.165-1.211-.882a4.068,4.068,0,0,1-.11-2.147,16.868,16.868,0,0,1,.936-3.248,3.157,3.157,0,0,0,.329-2.037,1.278,1.278,0,0,1,.331-1.047c.056-.109.111-.274.22-.33,1.157-.936,1.487-2.258,1.982-3.523.5-1.212,1.047-2.423,1.6-3.634.441-.827.827-1.707,1.212-2.534.5-1.156,1.1-2.2,1.651-3.3a16.184,16.184,0,0,0,1.322-2.808c.11-.331.276-.6.385-.881.5-.826.936-1.6,1.376-2.422.166-.22.056-.5-.164-.5-.386-.055-.715-.055-1.266-.11.605-.166,1.046-.221,1.486-.331a.119.119,0,0,0,.11-.11c0-.054-.055-.165-.11-.165a8.136,8.136,0,0,0-1.156.055,25.17,25.17,0,0,0-4.515.937c-1.266.33-2.533.659-3.854.991a3.667,3.667,0,0,1-1.323.164c-.109-.056-.274-.109-.329-.22-.055-.165.111-.276.22-.33.275-.055.551-.111.881-.165-.11-.166-.274-.11-.44-.166a.947.947,0,0,1-.385-.054c-.772-.111-.937-.387-.661-1.047a1.229,1.229,0,0,0,.165-.88,1.67,1.67,0,0,1,.881-1.652,9.089,9.089,0,0,1,.991-.551,38.573,38.573,0,0,1,7.323-2.588,15.859,15.859,0,0,1,3.3-.551,4.172,4.172,0,0,0,.825-.111,14.136,14.136,0,0,1,3.414-.219c.992.056,2.037-.055,3.028-.055a18.413,18.413,0,0,1,6.663,1.321,8.167,8.167,0,0,1,1.045.385,7.547,7.547,0,0,1,3.58,2.975,8.445,8.445,0,0,1,1.267,3.633,36.652,36.652,0,0,1,.164,4.24,16.965,16.965,0,0,1-.495,3.414,3.132,3.132,0,0,1-.385.99,10.576,10.576,0,0,1-1.817,2.314c-.331.274-.606.6-.937.935a4.915,4.915,0,0,1-1.431,1.211,1.591,1.591,0,0,0-.551.5,2.144,2.144,0,0,1-.55.442A8.973,8.973,0,0,0,270,245.672a7.16,7.16,0,0,1-2.423,1.6,1.7,1.7,0,0,0-.881.659,5.451,5.451,0,0,1-2.2,1.431c-.165.056-.386.111-.551.166a.935.935,0,0,0-.5.771.716.716,0,0,0,.442.661c.771.33,1.486.716,2.312,1.046a15.377,15.377,0,0,1,4.4,2.093c.165.11.385.165.55.274,1.266.552,2.588,1.047,3.855,1.652a6.736,6.736,0,0,1,1.6.936,4.911,4.911,0,0,0,1.707.826,5.954,5.954,0,0,1,1.653.882,2.029,2.029,0,0,1,.88,1.982.391.391,0,0,1-.55.329c-.11-.054-.221-.164-.33-.22-2.093-1.266-4.3-2.2-6.443-3.248-.661-.33-1.321-.607-2.037-.936a4.491,4.491,0,0,0-1.873-.495,4.763,4.763,0,0,0-1.155-.661c-1.377-.6-2.809-1.156-4.186-1.708a9.966,9.966,0,0,0-1.156-.439c-.716-.277-1.431-.551-2.147-.772a.077.077,0,0,0-.111,0v.166a2.047,2.047,0,0,0,.772.385c1.486.551,2.974,1.1,4.46,1.763.77.384,1.6.66,2.422.99a6.588,6.588,0,0,0,1.1.276,6.444,6.444,0,0,0,1.707.935c1.872.882,3.744,1.763,5.561,2.643.827.385,1.6.882,2.369,1.321.219.167.385.386.6.551-.936-.33-1.762-.88-2.643-1.266-1.267-.606-2.532-1.157-3.8-1.762a2.57,2.57,0,0,0-1.1-.33,1.628,1.628,0,0,0-1.158-.5,2.526,2.526,0,0,0,1.158.5,3.621,3.621,0,0,0,1.156.716c1.927.936,3.853,1.762,5.725,2.863.275.165.551.385.826.551a.518.518,0,0,1,.055.826,1.547,1.547,0,0,1-1.707.439l-.495-.165A82.8,82.8,0,0,0,270,260.042c-4.3-1.762-8.7-3.3-13.049-4.9a3.961,3.961,0,0,0-1.377-.385,1.2,1.2,0,0,0-.275.166c-.056.109.055.219.165.274.385.165.826.331,1.267.495,1.651.551,3.3,1.047,4.955,1.653,3.469,1.266,6.882,2.589,10.3,4.019,1.653.716,3.249,1.487,4.845,2.2a4.272,4.272,0,0,1,1.321.882c.056,0,.056.11.056.164,0,.111-.11.166-.22.166A7.823,7.823,0,0,1,276.383,264.228ZM248.468,226.95a1.11,1.11,0,0,0,.6-.164,2.986,2.986,0,0,0,.661-.221,1.993,1.993,0,0,1,.606-.22,1.52,1.52,0,0,0,.5-.055c.331-.054.6-.22.441-.274a.778.778,0,0,0-.5.054,1.9,1.9,0,0,1-.44.275c-.221.055-.386.166-.606.22a1.063,1.063,0,0,0-.661.221,1.123,1.123,0,0,0-.6.164,3.637,3.637,0,0,0-1.652.661h-.055A3.78,3.78,0,0,0,248.468,226.95Zm3.688,1.653a20,20,0,0,1,4.4-.771,1.832,1.832,0,0,0,.55-.056c.221,0,.5,0,.606-.273.111-.111-.164-.221-.714-.166h-.166a33.381,33.381,0,0,0-5.781.991c-.056.055-.056.055-.111.055,0,.055-.11.11-.055.165a.118.118,0,0,0,.11.11A2.063,2.063,0,0,0,252.156,228.6Zm-.33,30.064c0-.056.056-.11.056-.166h-.111a.2.2,0,0,1-.055.166Zm0-28.852h0Zm1.267-.332h.165c-.055.056-.11.056-.165.112h-.055C252.982,229.539,252.982,229.539,253.093,229.483Zm.44-.108h.221c-.056.053-.11.053-.166.108h-.33A.434.434,0,0,0,253.533,229.375Zm13.655-4.957a30.206,30.206,0,0,0-8.04-.33,15.454,15.454,0,0,0-3.137.5c2.313-.166,4.57-.111,6.883-.056s4.57.5,6.827.771A6.091,6.091,0,0,0,267.188,224.418Zm-9.251,20.813a1.431,1.431,0,0,0,.551-1.1,2.676,2.676,0,0,0,.221-.606c-.056.221-.11.442-.165.606a2.223,2.223,0,0,0-.827.936.335.335,0,0,0,.055.221A.2.2,0,0,1,257.937,245.231Zm.166-20.041c.111-.056.166-.056.221-.112.164,0,.385.056.606.056a2.432,2.432,0,0,0,.605-.056c.054,0,.054-.054.109-.109-.055-.055-.109-.11-.165-.11a1.705,1.705,0,0,0-1.155.219.329.329,0,0,0-.221.056c-.055,0-.11,0-.055.056Zm1.322,19.71c.11-.11.219-.165.33-.274a14.693,14.693,0,0,1,1.816-1.211c1.432-.937,2.864-1.928,4.24-3.029,1.267-1.046,2.534-2.036,3.8-3.139a20.731,20.731,0,0,0,2.918-2.917c.772-.937.992-1.047-.165-2.038-.109-.055-.164-.11-.274-.166a32.331,32.331,0,0,0-2.919-1.816c-.33-.165-.715-.056-1.1-.11-.274-.055-.549-.055-.66-.385-.056-.276-.274-.276-.495-.332a1.583,1.583,0,0,0-.661.221,16.253,16.253,0,0,0-1.651.056.26.26,0,0,0-.276.275c-.056.165.055.219.221.275.439.165.439.22.385.55a3.134,3.134,0,0,1-.441,1.377,13.653,13.653,0,0,0-.936,2.037.335.335,0,0,0-.055.221,1.349,1.349,0,0,1-.5,1.267,5.759,5.759,0,0,0-.55.66.419.419,0,0,0-.056.5c.221.275.111.5-.054.772l-2.148,3.8a2.137,2.137,0,0,1-.44.551.2.2,0,0,1,.055-.165c0-.11,0-.276-.111-.276-.055,0-.164.11-.22.166-.054.165-.054.33-.109.495-.111.055-.166.165-.222.22a.433.433,0,0,1,.222-.22c.109-.055.274-.165.385-.22a3.5,3.5,0,0,1-.441,1.267,5.235,5.235,0,0,0-.495,1.156c-.055.165-.11.329.111.439A.52.52,0,0,0,259.425,244.9Zm.88-4.349a.84.84,0,0,0,.386-.66c0-.056,0-.056-.055-.056,0-.055-.055-.055-.055,0a.643.643,0,0,0-.44.606v.11C260.2,240.551,260.3,240.606,260.3,240.551Zm8.04-14.812a.291.291,0,0,0-.221-.108,16.742,16.742,0,0,0-5.727-.772c-.11,0-.274-.054-.33.165a.741.741,0,0,0,.5.11c1.266.165,2.533.276,3.8.441a11.844,11.844,0,0,0,1.983.164h.054c.056.056.056.056.11.056A.2.2,0,0,0,268.345,225.739Zm.77,3.083c.055,0,0-.108-.055-.164a14.481,14.481,0,0,0-3.854-1.1c-.165,0-.165-.054-.221,0-.11,0-.275,0-.329.165s.054.275.219.331c.221.055.441.164.661.219.937.166,1.872.386,2.863.606a2.037,2.037,0,0,0,.607.056C269.06,228.988,269.115,228.878,269.115,228.822Zm-2.863.882c.055,0,.11,0,.11.056C266.362,229.7,266.307,229.7,266.252,229.7Zm2.918.606v0Zm4.791,33.533h.055c.22.054.384.109.605.164Zm.66.164a3.239,3.239,0,0,1,1.652.882A4.386,4.386,0,0,1,274.621,264.007Zm1.762.882h-.11a.2.2,0,0,1,.165.054A.054.054,0,0,1,276.383,264.889Zm3.469-3.36c.165.056.275.111.441.166v.055A1.7,1.7,0,0,0,279.852,261.529Z" fill="url(#linear-gradient-15)"/>
    </g>
  </g>
</svg>
