<svg xmlns="http://www.w3.org/2000/svg" width="244.408" height="233.956" viewBox="0 0 244.408 233.956"><g transform="translate(-1252.495 3876.311) rotate(-90)" opacity="0.92"><rect width="37.069" height="37.069" transform="translate(3816.736 1320.686)" fill="#4db6ac"/><path d="M293.232,307.782H248.22V262.77h45.012Zm-43.055-1.957h41.1v-41.1h-41.1Z" transform="translate(3583.079 1028.791)" fill="#3f3d56"/><rect width="37.069" height="37.069" transform="translate(3677.999 1435.258) rotate(74.063)" fill="#4db6ac"/><path d="M136.267,431.488l-12.359-43.282,43.282-12.359,12.359,43.282Zm-9.94-41.938,11.285,39.518,39.518-11.285-11.285-39.518Z" transform="translate(3542.816 1065.415)" fill="#3f3d56"/><rect width="37.069" height="37.069" transform="matrix(-0.683, 0.731, -0.731, -0.683, 3704.276, 1277.806)" fill="#4db6ac"/><path d="M112.781,285.108l30.734-32.886L176.4,282.957l-30.734,32.886Zm30.828-30.12-28.062,30.026,30.026,28.062,28.062-30.026Z" transform="translate(3539.213 1025.375)" fill="#3f3d56"/></g></svg>