<svg xmlns="http://www.w3.org/2000/svg" width="65" height="61.177" viewBox="0 0 65 61.177"><path d="M30.78,17.242l5.974,1.709a1.005,1.005,0,0,1-.275,1.972H32.56a3.074,3.074,0,0,1-1.231-.263,1.481,1.481,0,0,0-1.685.239l-2.091,2.091a1.433,1.433,0,0,0,.179,2.2,8.731,8.731,0,0,0,3.8,1.374v2.115a1.917,1.917,0,0,0,1.912,1.912h1.912a1.917,1.917,0,0,0,1.912-1.912v-2.1a6.723,6.723,0,0,0,5.891-7.528,7.011,7.011,0,0,0-5.126-5.7l-5.974-1.709a1.005,1.005,0,0,1,.275-1.972h3.919a3.074,3.074,0,0,1,1.231.263,1.481,1.481,0,0,0,1.685-.239L41.259,7.6a1.433,1.433,0,0,0-.179-2.2,8.731,8.731,0,0,0-3.8-1.374V1.912A1.917,1.917,0,0,0,35.368,0H33.456a1.917,1.917,0,0,0-1.912,1.912v2.1a6.723,6.723,0,0,0-5.891,7.528A7.011,7.011,0,0,0,30.78,17.242ZM63.794,39.2a3.588,3.588,0,0,0-4.815,0l-10.419,8.83a6.949,6.949,0,0,1-4.517,1.673H30.7a1.915,1.915,0,0,1,0-3.824h8.83a3.826,3.826,0,0,0,.191-7.647H21.663a12.776,12.776,0,0,0-8.352,3.142l-5.245,4.5H1.8A1.866,1.866,0,0,0,0,47.795V59.265a1.866,1.866,0,0,0,1.8,1.912H42.059A7,7,0,0,0,46.576,59.5L63.639,45.046a3.97,3.97,0,0,0,.155-5.843Z" fill="#408EC5"/></svg>