<svg xmlns="http://www.w3.org/2000/svg" width="1011.5" height="437.7" viewBox="0 0 1011.5 437.7">
  <g id="Grupo_1" data-name="Grupo 1" transform="translate(0 0)">
    <rect id="Retângulo_6" data-name="Retângulo 6" width="29.282" height="101.362" transform="translate(889.291 176.279)" fill="#f2f2f2"/>
    <path id="Caminho_1" data-name="Caminho 1" d="M913.057,263.78l-71.22-84.728-142.959,1.307-86.722,84.468,1.753,1.126h-.626v175.7H912.866v-175.7Z" transform="translate(24.854 -5.206)" fill="#f2f2f2"/>
    <path id="Caminho_2" data-name="Caminho 2" d="M846.127,179.238,757.154,283.55v158.1H917.082V263.706Z" transform="translate(20.638 -5.212)" fill="#e6e6e6"/>
    <rect id="Retângulo_7" data-name="Retângulo 7" width="32.661" height="28.869" transform="translate(841.988 349.009)" fill="#3f3d56"/>
    <rect id="Retângulo_8" data-name="Retângulo 8" width="32.661" height="28.411" transform="translate(841.988 299.041)" fill="#3f3d56"/>
    <rect id="Retângulo_9" data-name="Retângulo 9" width="32.661" height="28.869" transform="translate(841.988 349.009)" fill="#fff"/>
    <rect id="Retângulo_10" data-name="Retângulo 10" width="32.661" height="28.411" transform="translate(841.988 299.041)" fill="#fff"/>
    <rect id="Retângulo_11" data-name="Retângulo 11" width="32.661" height="28.869" transform="translate(683.991 341.349)" fill="#fff"/>
    <rect id="Retângulo_12" data-name="Retângulo 12" width="32.661" height="28.411" transform="translate(683.991 291.38)" fill="#fff"/>
    <rect id="Retângulo_13" data-name="Retângulo 13" width="29.282" height="101.362" transform="translate(643.502 176.279)" fill="#f2f2f2"/>
    <path id="Caminho_3" data-name="Caminho 3" d="M675.057,263.78l-71.22-84.728-142.959,1.307-86.722,84.468,1.753,1.126h-.626v175.7H674.866v-175.7Z" transform="translate(12.319 -5.206)" fill="#f2f2f2"/>
    <path id="Caminho_4" data-name="Caminho 4" d="M608.128,179.238,519.154,283.55v158.1H679.082V263.706Z" transform="translate(11.483 -5.212)" fill="#e6e6e6"/>
    <rect id="Retângulo_14" data-name="Retângulo 14" width="32.661" height="28.869" transform="translate(594.145 349.009)" fill="#3f3d56"/>
    <rect id="Retângulo_15" data-name="Retângulo 15" width="32.661" height="28.411" transform="translate(594.145 299.041)" fill="#3f3d56"/>
    <rect id="Retângulo_16" data-name="Retângulo 16" width="32.661" height="28.869" transform="translate(594.145 349.009)" fill="#fff"/>
    <rect id="Retângulo_17" data-name="Retângulo 17" width="32.661" height="28.411" transform="translate(594.145 299.041)" fill="#fff"/>
    <rect id="Retângulo_18" data-name="Retângulo 18" width="32.661" height="28.869" transform="translate(442.383 341.349)" fill="#fff"/>
    <rect id="Retângulo_19" data-name="Retângulo 19" width="32.661" height="28.411" transform="translate(442.383 291.38)" fill="#fff"/>
    <rect id="Retângulo_20" data-name="Retângulo 20" width="39.129" height="135.445" transform="translate(386.034 88.801)" fill="#f2f2f2"/>
    <path id="Caminho_5" data-name="Caminho 5" d="M435.027,201.327,339.86,88.112,148.832,89.858,32.951,202.729l2.341,1.5h-.836V439H434.771V204.233Z" transform="translate(-0.958 -2.562)" fill="#f2f2f2"/>
    <path id="Caminho_6" data-name="Caminho 6" d="M345.593,88.36,226.7,227.747V439.012H440.4V201.231Z" transform="translate(5.841 -2.569)" fill="#e6e6e6"/>
    <rect id="Retângulo_21" data-name="Retângulo 21" width="43.643" height="38.576" transform="translate(319.995 319.61)" fill="#3f3d56"/>
    <rect id="Retângulo_22" data-name="Retângulo 22" width="43.643" height="37.964" transform="translate(319.995 252.84)" fill="#3f3d56"/>
    <rect id="Retângulo_23" data-name="Retângulo 23" width="43.643" height="38.576" transform="translate(319.995 319.61)" fill="#fff"/>
    <rect id="Retângulo_24" data-name="Retângulo 24" width="43.643" height="37.964" transform="translate(319.995 252.84)" fill="#fff"/>
    <rect id="Retângulo_25" data-name="Retângulo 25" width="43.643" height="38.576" transform="translate(111.938 309.374)" fill="#fff"/>
    <rect id="Retângulo_26" data-name="Retângulo 26" width="43.643" height="37.964" transform="translate(111.938 242.604)" fill="#fff"/>
    <rect id="Retângulo_27" data-name="Retângulo 27" width="978.576" height="1.942" transform="translate(0 435.576)" fill="#3f3d56"/>
    <ellipse id="Elipse_1" data-name="Elipse 1" cx="28.253" cy="57.648" rx="28.253" ry="57.648" transform="translate(119.203 284.575)" fill="#3f3d56"/>
    <path id="Caminho_7" data-name="Caminho 7" d="M255.478,670.175c-11.316-67.892-.114-135.539,0-136.214l2.2.373c-.114.672-11.251,67.963,0,135.475Z" transform="translate(-105.412 -233.591)" fill="#408EC5"/>
    <rect id="Retângulo_28" data-name="Retângulo 28" width="28.974" height="2.233" transform="translate(146.78 343.491) rotate(-28.142)" fill="#408EC5"/>
    <rect id="Retângulo_29" data-name="Retângulo 29" width="2.233" height="28.975" transform="translate(119.816 338.639) rotate(-61.842)" fill="#408EC5"/>
    <ellipse id="Elipse_2" data-name="Elipse 2" cx="55.26" cy="112.752" rx="55.26" ry="112.752" transform="translate(24.312 140.564)" fill="#408EC5"/>
    <path id="Caminho_8" data-name="Caminho 8" d="M189.068,667.436c-22.1-132.614-.223-264.745,0-266.064l2.2.373c-.223,1.316-22.038,133.091,0,265.325Z" transform="translate(-103.341 -229.736)" fill="#3f3d56"/>
    <rect id="Retângulo_30" data-name="Retângulo 30" width="56.67" height="2.233" transform="translate(78.754 256.739) rotate(-28.142)" fill="#3f3d56"/>
    <rect id="Retângulo_31" data-name="Retângulo 31" width="2.233" height="56.67" transform="translate(26.017 245.373) rotate(-61.842)" fill="#3f3d56"/>
    <ellipse id="Elipse_3" data-name="Elipse 3" cx="75.619" cy="154.293" rx="75.619" ry="154.293" transform="translate(134.833 31.161)" fill="#408EC5"/>
    <path id="Caminho_9" data-name="Caminho 9" d="M326.512,664.5c-30.234-181.4-.305-362.147,0-363.952l2.2.373c-.305,1.8-30.17,182.188,0,363.212Z" transform="translate(-98.023 -226.805)" fill="#3f3d56"/>
    <rect id="Retângulo_32" data-name="Retângulo 32" width="77.549" height="2.233" transform="translate(219.463 190.501) rotate(-28.142)" fill="#3f3d56"/>
    <rect id="Retângulo_33" data-name="Retângulo 33" width="2.233" height="77.549" transform="matrix(0.472, -0.882, 0.882, 0.472, 137.359, 174.215)" fill="#3f3d56"/>
    <ellipse id="Elipse_4" data-name="Elipse 4" cx="28.253" cy="57.648" rx="28.253" ry="57.648" transform="translate(860.103 284.575)" fill="#3f3d56"/>
    <path id="Caminho_10" data-name="Caminho 10" d="M969.346,670.175c11.316-67.892.114-135.539,0-136.214l-2.2.373c.114.672,11.251,67.963,0,135.475Z" transform="translate(-83.598 -233.591)" fill="#408EC5"/>
    <rect id="Retângulo_34" data-name="Retângulo 34" width="2.233" height="28.974" transform="translate(862.424 331.799) rotate(-61.858)" fill="#408EC5"/>
    <rect id="Retângulo_35" data-name="Retângulo 35" width="28.975" height="2.233" transform="translate(889.393 350.349) rotate(-28.158)" fill="#408EC5"/>
    <ellipse id="Elipse_5" data-name="Elipse 5" cx="55.26" cy="112.752" rx="55.26" ry="112.752" transform="translate(900.98 140.564)" fill="#408EC5"/>
    <path id="Caminho_11" data-name="Caminho 11" d="M1035.614,667.436c22.1-132.614.223-264.745,0-266.064l-2.2.373c.223,1.316,22.038,133.091,0,265.325Z" transform="translate(-85.525 -229.736)" fill="#3f3d56"/>
    <rect id="Retângulo_36" data-name="Retângulo 36" width="2.233" height="56.67" transform="translate(906.028 231.985) rotate(-61.858)" fill="#3f3d56"/>
    <rect id="Retângulo_37" data-name="Retângulo 37" width="56.67" height="2.233" transform="translate(958.777 270.137) rotate(-28.158)" fill="#3f3d56"/>
    <ellipse id="Elipse_6" data-name="Elipse 6" cx="75.619" cy="154.293" rx="75.619" ry="154.293" transform="translate(749.743 31.161)" fill="#408EC5"/>
    <path id="Caminho_12" data-name="Caminho 12" d="M898.058,664.5c30.234-181.4.305-362.147,0-363.952l-2.2.373c.305,1.8,30.17,182.188,0,363.212Z" transform="translate(-89.646 -226.805)" fill="#3f3d56"/>
    <rect id="Retângulo_38" data-name="Retângulo 38" width="2.233" height="77.549" transform="translate(748.062 155.897) rotate(-61.858)" fill="#3f3d56"/>
    <rect id="Retângulo_39" data-name="Retângulo 39" width="77.549" height="2.233" transform="matrix(0.882, -0.472, 0.472, 0.882, 829.025, 208.847)" fill="#3f3d56"/>
    <path id="Caminho_13" data-name="Caminho 13" d="M690.274,325.845l8.938-7.149c-6.943-.766-9.8,3.021-10.964,6.018-5.425-2.253-11.33.7-11.33.7l17.883,6.492A13.534,13.534,0,0,0,690.274,325.845Z" transform="translate(-92.619 -227.329)" fill="#3f3d56"/>
    <path id="Caminho_14" data-name="Caminho 14" d="M465.274,260.845l8.938-7.149c-6.943-.766-9.8,3.021-10.964,6.018-5.425-2.253-11.33.7-11.33.7l17.883,6.492A13.533,13.533,0,0,0,465.274,260.845Z" transform="translate(-95.921 -225.439)" fill="#3f3d56"/>
    <path id="Caminho_15" data-name="Caminho 15" d="M832.274,231.845l8.938-7.149c-6.943-.766-9.8,3.021-10.964,6.018-5.424-2.253-11.33.7-11.33.7l17.883,6.492a13.533,13.533,0,0,0-4.527-6.061Z" transform="translate(-90.535 -224.596)" fill="#3f3d56"/>
    <path id="Caminho_16" data-name="Caminho 16" d="M850.33,661.59a13.515,13.515,0,0,0-6.768,1.816,14.546,14.546,0,0,0-24.3,10.806h44.614A13.584,13.584,0,0,0,850.33,661.59Z" transform="translate(-89.771 -237.246)" fill="#3f3d56"/>
    <path id="Caminho_17" data-name="Caminho 17" d="M383.33,661.59a13.516,13.516,0,0,0-6.768,1.816,14.546,14.546,0,0,0-24.3,10.806h44.613A13.584,13.584,0,0,0,383.33,661.59Z" transform="translate(-97.118 -237.246)" fill="#3f3d56"/>
    <path id="Caminho_18" data-name="Caminho 18" d="M622.33,661.59a13.515,13.515,0,0,0-6.768,1.816,14.546,14.546,0,0,0-24.3,10.806h44.614A13.584,13.584,0,0,0,622.33,661.59Z" transform="translate(-93.358 -237.246)" fill="#3f3d56"/>
    <path id="Caminho_19" data-name="Caminho 19" d="M467.9,404.228H339.191v4.152h20.074v39.445h4.152V408.38H441.6v39.445h4.153V408.38H467.9Z" transform="translate(6.858 -11.754)" fill="#3f3d56"/>
    <rect id="Retângulo_40" data-name="Retângulo 40" width="128.713" height="4.152" transform="translate(346.315 380.052)" fill="#3f3d56"/>
    <rect id="Retângulo_41" data-name="Retângulo 41" width="128.713" height="4.152" transform="translate(346.315 369.672)" fill="#3f3d56"/>
    <rect id="Retângulo_42" data-name="Retângulo 42" width="128.713" height="4.152" transform="translate(346.315 359.292)" fill="#3f3d56"/>
    <path id="Caminho_20" data-name="Caminho 20" d="M674.9,404.228H546.191v4.152h20.074v39.445h4.152V408.38H648.6v39.445h4.153V408.38H674.9Z" transform="translate(11.042 -11.754)" fill="#3f3d56"/>
    <rect id="Retângulo_43" data-name="Retângulo 43" width="128.713" height="4.152" transform="translate(557.5 380.052)" fill="#3f3d56"/>
    <rect id="Retângulo_44" data-name="Retângulo 44" width="128.713" height="4.152" transform="translate(557.5 369.672)" fill="#3f3d56"/>
    <rect id="Retângulo_45" data-name="Retângulo 45" width="128.713" height="4.152" transform="translate(557.5 359.292)" fill="#3f3d56"/>
  </g>
</svg>
