<svg xmlns="http://www.w3.org/2000/svg" width="119.748" height="96.787" viewBox="0 0 119.748 96.787"><path d="M101.981,5.937A48.618,48.618,0,0,0,82.869,2.25c-20.222,0-40.442,10.235-60.664,10.235A49.813,49.813,0,0,1,6.994,10.232a5.614,5.614,0,0,0-1.7-.266A5.224,5.224,0,0,0,0,15.189V67.276a5.221,5.221,0,0,0,3.093,4.837A48.591,48.591,0,0,0,22.205,75.8c20.222,0,40.444-10.236,60.665-10.236a49.813,49.813,0,0,1,15.211,2.253,5.614,5.614,0,0,0,1.7.266,5.224,5.224,0,0,0,5.295-5.222V10.776a5.228,5.228,0,0,0-3.095-4.838ZM7.881,18.7a57.135,57.135,0,0,0,10.3,1.466,10.52,10.52,0,0,1-10.3,8.462Zm0,46.791V57.65A10.5,10.5,0,0,1,18.34,67.731,39.662,39.662,0,0,1,7.881,65.495ZM52.537,54.787c-7.255,0-13.134-7.058-13.134-15.761s5.881-15.761,13.134-15.761,13.134,7.056,13.134,15.761S59.789,54.787,52.537,54.787Zm44.656,4.561a56.45,56.45,0,0,0-8.918-1.386,10.485,10.485,0,0,1,8.918-8.091Zm0-38.764a10.486,10.486,0,0,1-9.163-10.105,39.466,39.466,0,0,1,9.163,2.078Z" transform="translate(-0.544 23.237) rotate(-14)" fill="#408EC5"/></svg>