<svg xmlns="http://www.w3.org/2000/svg" xmlns:xlink="http://www.w3.org/1999/xlink" width="75" height="75" viewBox="0 0 488 466">
  <defs>
    <clipPath id="clip-Personalizado_1">
      <rect width="488" height="466"/>
    </clipPath>
  </defs>
  <g id="Personalizado_1" data-name="Personalizado – 1" clip-path="url(#clip-Personalizado_1)">
    <rect width="488" height="466" fill="#fff"/>
    <g id="Grupo_1" data-name="Grupo 1" transform="translate(0 -15)">
      <g id="Grupo_1-2" data-name="Grupo 1" transform="translate(-1101 -574)">
        <g id="Grupo_1-3" data-name="Grupo 1" transform="translate(-18)">
          <path id="Caminho_1" data-name="Caminho 1" d="M12.7,297.1.1,174.2c-.6-6.1,1.5-12.3,6.2-16.1,5.7-4.6,14.7-6.3,21.4,1.3,4.7,5.4,7,22.2,7.8,26.7,2.7,16.1,5.4,39.1,5.8,55.3,0,1.1.1,2.6.2,3.7a54.734,54.734,0,0,0,5.1,20.2c16.4,35.6,49.3,80.6,49.3,80.6l1.8,2.7a4.815,4.815,0,0,0,8.1-5.2L62.2,272.3c-4.7-7.9-2-19.1,6.5-24.3s19.7-2.6,24.4,5.3l45.3,58.2a74.687,74.687,0,0,0,12.4,12.1c40.7,29.3,46.2,59.1,49.8,74.3,0,0,.3,3.4.4,8.3h0a106.138,106.138,0,0,1-.8,14.3l-2.7,48.9a6.487,6.487,0,0,1-6.5,6.5l-76.6-.4a6.487,6.487,0,0,1-6.5-6.5l-1.4-40.4L33.8,341c-10.7-11.4-18-24.2-20.3-39.6Zm42.2-64c0,1.4.1,2.7.1,4.1a36.976,36.976,0,0,1,4.9-3.7,30.8,30.8,0,0,1,6.9-3.2,1.38,1.38,0,0,1,.3-.4c-1.7-12.7-6.2-36.7-9.5-49.1C55.9,174.6,52.3,170,46,168a103.511,103.511,0,0,1,2.9,12.9C51.2,194.8,54.6,219.8,54.9,233.1Zm24.6-6.4a10.869,10.869,0,0,1,.1,1.8,34.126,34.126,0,0,1,10.9,2.2c-1.2-8.2-6.7-24.6-8.7-32.3-1.6-6.2-5.2-10.7-11.4-12.8,2,9.2,7.2,26.1,8.4,35.1Zm381.2-67.3c-4.7,5.4-7,22.2-7.8,26.7-2.7,16.1-5.4,39.1-5.8,55.3,0,1.1-.1,2.6-.2,3.7a54.734,54.734,0,0,1-5.1,20.2c-16.4,35.6-49.3,80.6-49.3,80.6l-1.8,2.7a4.815,4.815,0,0,1-8.1-5.2l43.6-71.1c4.7-7.9,2-19.1-6.5-24.3s-19.7-2.6-24.4,5.3L350,311.5a74.685,74.685,0,0,1-12.4,12.1c-40.7,29.3-46.2,59.1-49.8,74.3,0,0-.3,3.4-.4,8.3h0a106.138,106.138,0,0,0,.8,14.3l2.7,48.9a6.487,6.487,0,0,0,6.5,6.5l76.6-.4a6.487,6.487,0,0,0,6.5-6.5l1.4-40.4L454.6,341c10.7-11.4,18-24.2,20.3-39.6l.7-4.5L488.3,174c.6-6.1-1.5-12.3-6.2-16.1-5.7-4.4-14.7-6.1-21.4,1.5Zm-32.2,74.2a29.983,29.983,0,0,1,4.9,3.7c0-1.4.1-2.7.1-4.1.3-13.3,3.7-38.4,6-52.3a91.264,91.264,0,0,1,2.9-12.9c-6.3,2.1-10,6.6-11.6,12.8-3.3,12.4-7.8,36.4-9.5,49.1a1.38,1.38,0,0,0,.3.4,36.387,36.387,0,0,1,6.9,3.3Zm-19.7-6.9.8-6.1c1.2-8.9,6.3-25.8,8.4-35.1-6.2,2.1-9.8,6.6-11.4,12.8-2,7.7-7.5,24.1-8.7,32.3a37.082,37.082,0,0,1,10.9-2.2c0-.5,0-1.1,0-1.7Z" transform="translate(1119 544.5)" fill="#408ec5"/>
          <g id="Caminho_2" data-name="Caminho 2" transform="translate(1224 565)">
            <path id="Caminho_1-2" data-name="Caminho 1" d="M0,16.5Z" fill="#408ec5"/>
            <path id="Caminho_2-2" data-name="Caminho 2" d="M0,13.869v0Z" fill="#707070"/>
          </g>
        </g>
        <path id="Caminho_4" data-name="Caminho 4" d="M0,15Z" transform="translate(1233 693)" fill="#fff"/>
        <g id="Grupo_2" data-name="Grupo 2" transform="translate(1101 755.073)">
          <path id="Caminho_3" data-name="Caminho 3" d="M0,102.4V246.6H249V102.4ZM21.788,228.575v-26.02c22.311,0,24.8,4.486,24.8,26.02Zm0-81.9v-26.25H49.031C47.2,140.663,44.1,146.672,21.788,146.672Zm208.537,81.9h-26.1c0-21.535,3.79-23.016,26.1-23.016v23.016Zm0-84.908c-21.824,0-26.1-1.708-26.1-23.242h26.1Z" transform="translate(119 -227.473)" fill="#408ec5"/>
          <path id="Caminho_5" data-name="Caminho 5" d="M33,0C51.225,0,66,17.879,66,39.935S51.225,79.869,33,79.869,0,61.99,0,39.935,14.775,0,33,0Z" transform="translate(210.249 -92.942)" fill="#fff"/>
        </g>
      </g>
    </g>
  </g>
</svg>
